<svg width="43" height="49" viewBox="0 0 43 49" fill="none" xmlns="http://www.w3.org/2000/svg">
<path d="M42.4881 0.68101C42.1057 0.247454 41.5603 0 40.9887 0H2.01261C1.44103 0 0.895612 0.247454 0.513217 0.68101C0.130822 1.11457 -0.0503121 1.69332 0.0120787 2.27003L4.44383 42.8096C4.53239 43.6337 5.10598 44.3229 5.8909 44.5499L20.9452 48.9202C21.1263 48.9734 21.3135 49 21.4986 49C21.6838 49 21.871 48.9734 22.0521 48.9202L37.1064 44.5499C37.8913 44.3229 38.4629 43.6337 38.5535 42.8096L42.9872 2.27003C43.0516 1.69332 42.8705 1.11457 42.4881 0.68101ZM32.6022 20.6021L31.7046 35.5005L21.5651 38.8687L11.4256 35.5005L11.0412 28.3754H16.1733L16.3021 31.6148L21.5651 33.4288L26.828 31.6148L27.2124 25.7864H15.9177L15.6621 20.6041H27.47L27.8545 15.4219H10.1415L9.75711 10.2376H33.2442L32.6022 20.6021Z" fill="#FF9933"/>
</svg>
