<svg width="32" height="32" viewBox="0 0 32 49" fill="none" xmlns="http://www.w3.org/2000/svg">
<path d="M14.9333 0V14.913H7.46667C3.35467 14.913 0 11.5629 0 7.45652C0 3.35011 3.35467 0 7.46667 0H14.9333ZM14.9333 17.0435V31.9565H7.46667C3.35467 31.9565 0 28.6064 0 24.5C0 20.3936 3.35467 17.0435 7.46667 17.0435H14.9333ZM14.9333 34.087V41.5435C14.9333 45.6499 11.5787 49 7.46667 49C3.35467 49 0 45.6499 0 41.5435C0 37.4371 3.35467 34.087 7.46667 34.087H14.9333ZM32 7.45652C32 11.5629 28.6453 14.913 24.5333 14.913H17.0667V0H24.5333C28.6453 0 32 3.35011 32 7.45652ZM24.5333 17.0435C22.5531 17.0435 20.6539 17.8291 19.2536 19.2274C17.8533 20.6258 17.0667 22.5224 17.0667 24.5C17.0667 26.4776 17.8533 28.3742 19.2536 29.7726C20.6539 31.1709 22.5531 31.9565 24.5333 31.9565C26.5136 31.9565 28.4128 31.1709 29.8131 29.7726C31.2133 28.3742 32 26.4776 32 24.5C32 22.5224 31.2133 20.6258 29.8131 19.2274C28.4128 17.8291 26.5136 17.0435 24.5333 17.0435Z" fill="#FF9933"/>
</svg>
