<svg width="49" height="49" viewBox="0 0 49 49" fill="none" xmlns="http://www.w3.org/2000/svg">
<path d="M47.7142 21.4001L27.5999 1.28575C26.7469 0.428584 25.6235 0 24.5 0C23.3765 0 22.2531 0.428584 21.4 1.28575L17.4221 5.26367L22.3446 10.1861C23.9799 9.22495 26.1103 9.433 27.5126 10.8353C28.9148 12.2375 29.1187 14.368 28.1575 15.9991L32.9968 20.8383C34.632 19.8771 36.7625 20.0852 38.1647 21.4874C39.8291 23.1518 39.8291 25.8482 38.1647 27.5126C36.5003 29.177 33.804 29.177 32.1396 27.5126C30.7373 26.1103 30.5293 23.9799 31.4905 22.3446L26.6512 17.5054C26.3059 17.7092 25.9439 17.859 25.5652 17.9547V31.0411C27.4002 31.5155 28.7609 33.1674 28.7609 35.1522C28.7609 37.5073 26.8551 39.413 24.5 39.413C22.1449 39.413 20.2391 37.5073 20.2391 35.1522C20.2391 33.1674 21.5998 31.5155 23.4348 31.0411V17.9547C22.7232 17.7717 22.045 17.418 21.4874 16.8604C20.0852 15.4581 19.8813 13.3277 20.8425 11.6966L15.9158 6.76996L1.28575 21.4001C-0.428583 23.1102 -0.428583 25.8898 1.28575 27.5999L21.4 47.7142C22.2531 48.5714 23.3765 49 24.5 49C25.6235 49 26.7469 48.5714 27.5999 47.7142L47.7142 27.5999C49.4286 25.8898 49.4286 23.1102 47.7142 21.4001Z" fill="#FF9933"/>
</svg>
