<svg width="43" height="49" viewBox="0 0 43 49" fill="none" xmlns="http://www.w3.org/2000/svg">
<path d="M42.7252 0.345364C42.5289 0.124831 42.2467 0 41.9523 0H1.04774C0.753288 0 0.471103 0.124831 0.274801 0.345364C0.0744077 0.565897 -0.0237435 0.861328 0.00488418 1.16092L3.68964 43.1579C3.72645 43.599 4.02908 43.9652 4.44623 44.09L21.2096 48.9584C21.2996 48.9875 21.3978 49 21.4959 49C21.5941 49 21.6881 48.9875 21.7822 48.9584L38.5579 44.09C38.975 43.9652 39.2735 43.599 39.3144 43.1579L42.9951 1.16092C43.0237 0.861328 42.9256 0.565897 42.7252 0.345364ZM33.9039 14.8257H14.2082L14.6785 20.2475H33.4295L32.0226 36.2715L21.4918 39.5087L21.3896 39.4755L10.9815 36.2673L10.413 29.7387H15.5128L15.7336 32.2728L21.5532 33.5127L27.2664 32.2728L27.8757 25.4154H10.0327L8.64628 9.64521H34.3578L33.9039 14.8257Z" fill="#FF9933"/>
</svg>
