<svg width="49" height="49" viewBox="0 0 49 49" fill="none" xmlns="http://www.w3.org/2000/svg">
<path d="M45.8919 0H3.11263C1.39453 0 0 1.39453 0 3.11263V45.8874C0 47.6055 1.39453 49 3.11263 49H45.8874C47.6055 49 49 47.6055 49 45.8919V3.11263C49 1.39453 47.6055 0 45.8919 0ZM26.8333 37.5475C26.8333 42.2096 24.099 44.3333 20.1068 44.3333C16.4974 44.3333 13.8952 41.9134 12.8333 39.6667L16.502 37.4473C17.2083 38.7005 18.2839 39.6667 19.8333 39.6667C21.3145 39.6667 22.1667 39.0879 22.1667 36.8366V22.1667H26.8333V37.5475ZM36.9551 44.3333C32.8216 44.3333 30.4746 42.2507 29.1667 39.6667L32.6667 37.3333C33.6191 38.8919 34.6582 40.3822 36.8548 40.3822C38.7005 40.3822 39.6667 39.4616 39.6667 38.1855C39.6667 36.6634 38.6641 36.1211 36.6361 35.2324L35.5241 34.7539C32.3112 33.3867 30.1738 31.6732 30.1738 28.0456C30.1738 24.7096 32.7214 22.1667 36.6953 22.1667C39.5254 22.1667 41.5579 23.151 43.0254 25.7305L39.5619 27.959C38.7962 26.5872 37.9759 26.0495 36.6953 26.0495C35.3919 26.0495 34.5671 26.8789 34.5671 27.959C34.5671 29.2943 35.3919 29.832 37.3014 30.6615L38.4134 31.14C42.2005 32.7578 44.3333 34.4121 44.3333 38.1309C44.3333 42.1367 41.1842 44.3333 36.9551 44.3333Z" fill="#FF9933"/>
</svg>
