<svg width="38" height="38" viewBox="0 0 38 38" fill="none" xmlns="http://www.w3.org/2000/svg">
<path d="M31.222 0.387939H6.79418C3.42423 0.399472 0.698951 3.1453 0.6875 6.53808V31.1398C0.6875 34.5211 3.43682 37.2899 6.79418 37.2899H31.222C34.5794 37.2899 37.3287 34.5211 37.3287 31.1398V6.53808C37.3287 3.15683 34.5794 0.387939 31.222 0.387939V0.387939ZM27.8819 26.3055C27.5773 27.0447 27.094 27.6986 26.4746 28.2037C25.8299 28.7261 25.0192 29.1586 24.0172 29.4653C23.021 29.7778 21.8347 29.9335 20.4572 29.9335H10.6405V8.4063H21.024C22.9443 8.4063 24.4833 8.83876 25.6341 9.7279C26.7975 10.617 27.37 11.9502 27.37 13.74C27.37 14.8275 27.1078 15.7523 26.5822 16.5204C26.0566 17.2884 25.2997 17.8835 24.3218 18.2987V18.3713C25.6284 18.6481 26.636 19.272 27.2979 20.2395C27.9597 21.2071 28.3055 22.4318 28.3055 23.9091C28.3055 24.7383 28.1441 25.5248 27.8464 26.2571L27.8819 26.2986V26.3055ZM23.6417 21.0018C23.021 20.4252 22.1382 20.1427 21.0057 20.1427H14.4032V26.8579H21.0229C22.1496 26.8579 23.0382 26.5638 23.6646 25.9687C24.2909 25.3737 24.6069 24.5272 24.6069 23.4455C24.5955 22.3822 24.2909 21.56 23.6646 21.0007H23.6348L23.6417 21.0018ZM22.729 16.6588C23.3313 16.1421 23.6291 15.4029 23.6291 14.4365C23.6291 13.3548 23.3611 12.5867 22.8183 12.1485C22.2813 11.7103 21.5061 11.482 20.487 11.482H14.3803V17.4222H20.487C21.3756 17.4222 22.1393 17.1581 22.7233 16.6599L22.729 16.6588Z" fill="#C3CED9"/>
</svg>
