<svg width="33" height="37" viewBox="0 0 33 37" fill="none" xmlns="http://www.w3.org/2000/svg">
<path d="M31.6794 1.18553C31.3943 0.865825 30.9876 0.68335 30.5614 0.68335H1.50061C1.07444 0.68335 0.667774 0.865825 0.382658 1.18553C0.0975421 1.50524 -0.037513 1.93203 0.00900592 2.3573L3.31335 32.2517C3.37938 32.8594 3.80705 33.3676 4.39229 33.535L15.6169 36.7578C15.7519 36.797 15.8915 36.8166 16.0295 36.8166C16.1676 36.8166 16.3071 36.797 16.4422 36.7578L27.6668 33.535C28.252 33.3676 28.6782 32.8594 28.7457 32.2517L32.0515 2.3573C32.0996 1.93203 31.9645 1.50524 31.6794 1.18553ZM24.3084 15.8756L23.6391 26.8618L16.079 29.3456L8.51897 26.8618L8.23235 21.6077H12.0589L12.1549 23.9965L16.079 25.3342L20.0031 23.9965L20.2898 19.6985H11.8683L11.6778 15.8771H20.4818L20.7685 12.0557H7.56158L7.27496 8.23272H24.7871L24.3084 15.8756Z" fill="#C3CED9"/>
</svg>
