<svg width="25" height="38" viewBox="0 0 25 38" fill="none" xmlns="http://www.w3.org/2000/svg">
<path d="M11.387 0.97876V11.9758H5.86538C2.82454 11.9758 0.34375 9.50541 0.34375 6.47729C0.34375 3.44917 2.82454 0.97876 5.86538 0.97876H11.387ZM11.387 13.5468V24.5439H5.86538C2.82454 24.5439 0.34375 22.0735 0.34375 19.0454C0.34375 16.0172 2.82454 13.5468 5.86538 13.5468H11.387ZM11.387 26.1149V31.6134C11.387 34.6416 8.90622 37.112 5.86538 37.112C2.82454 37.112 0.34375 34.6416 0.34375 31.6134C0.34375 28.5853 2.82454 26.1149 5.86538 26.1149H11.387ZM24.0079 6.47729C24.0079 9.50541 21.5271 11.9758 18.4862 11.9758H12.9646V0.97876H18.4862C21.5271 0.97876 24.0079 3.44917 24.0079 6.47729ZM18.4862 13.5468C17.0218 13.5468 15.6174 14.1261 14.5819 15.1573C13.5464 16.1885 12.9646 17.5871 12.9646 19.0454C12.9646 20.5037 13.5464 21.9022 14.5819 22.9334C15.6174 23.9646 17.0218 24.5439 18.4862 24.5439C19.9507 24.5439 21.3551 23.9646 22.3906 22.9334C23.4261 21.9022 24.0079 20.5037 24.0079 19.0454C24.0079 17.5871 23.4261 16.1885 22.3906 15.1573C21.3551 14.1261 19.9507 13.5468 18.4862 13.5468Z" fill="#C3CED9"/>
</svg>
