<svg width="36" height="37" viewBox="0 0 36 37" fill="none" xmlns="http://www.w3.org/2000/svg">
<path d="M34.9364 16.1686L20.2087 1.33607C19.5841 0.703982 18.7615 0.387939 17.9389 0.387939C17.1163 0.387939 16.2937 0.703982 15.6691 1.33607L12.7565 4.26944L16.3607 7.89933C17.5581 7.19053 19.118 7.34395 20.1447 8.378C21.1715 9.41204 21.3208 10.983 20.617 12.1859L24.1603 15.7544C25.3576 15.0456 26.9175 15.199 27.9443 16.233C29.1629 17.4604 29.1629 19.4487 27.9443 20.6761C26.7256 21.9034 24.7513 21.9034 23.5327 20.6761C22.5059 19.642 22.3536 18.071 23.0574 16.8651L19.5141 13.2966C19.2612 13.447 18.9961 13.5574 18.7189 13.628V23.278C20.0625 23.6278 21.0587 24.846 21.0587 26.3096C21.0587 28.0463 19.6634 29.4516 17.9389 29.4516C16.2145 29.4516 14.8191 28.0463 14.8191 26.3096C14.8191 24.846 15.8154 23.6278 17.159 23.278V13.628C16.638 13.493 16.1414 13.2322 15.7331 12.821C14.7064 11.787 14.5571 10.216 15.2609 9.01315L11.6536 5.38019L0.941428 16.1686C-0.313809 17.4297 -0.313809 19.4794 0.941428 20.7405L15.6691 35.573C16.2937 36.2051 17.1163 36.5212 17.9389 36.5212C18.7615 36.5212 19.5841 36.2051 20.2087 35.573L34.9364 20.7405C36.1917 19.4794 36.1917 17.4297 34.9364 16.1686Z" fill="#C3CED9"/>
</svg>
