<svg width="33" height="37" viewBox="0 0 33 37" fill="none" xmlns="http://www.w3.org/2000/svg">
<path d="M31.8562 0.254676C31.7098 0.0920517 31.4994 0 31.2799 0H0.781202C0.561656 0 0.351257 0.0920517 0.204893 0.254676C0.0554788 0.417299 -0.0177033 0.635154 0.00364168 0.856078L2.75102 31.8252C2.77847 32.1505 3.00411 32.4205 3.31514 32.5125L15.814 36.1025C15.8811 36.124 15.9543 36.1332 16.0275 36.1332C16.1007 36.1332 16.1708 36.124 16.2409 36.1025L28.749 32.5125C29.06 32.4205 29.2826 32.1505 29.3131 31.8252L32.0574 0.856078C32.0788 0.635154 32.0056 0.417299 31.8562 0.254676ZM25.2789 10.9326H10.5937L10.9444 14.9307H24.9252L23.8763 26.747L16.0244 29.1342L15.9482 29.1097L8.18785 26.744L7.764 21.9297H11.5664L11.7311 23.7983L16.0702 24.7127L20.33 23.7983L20.7843 18.7417H7.48042L6.44672 7.1125H25.6174L25.2789 10.9326Z" fill="#112233"/>
</svg>
