<svg width="33" height="37" viewBox="0 0 33 37" fill="none" xmlns="http://www.w3.org/2000/svg">
<path d="M31.8562 0.938025C31.7098 0.775401 31.4994 0.68335 31.2799 0.68335H0.781202C0.561656 0.68335 0.351257 0.775401 0.204893 0.938025C0.0554788 1.10065 -0.0177033 1.3185 0.00364168 1.53943L2.75102 32.5086C2.77847 32.8338 3.00411 33.1038 3.31514 33.1959L15.814 36.7859C15.8811 36.8074 15.9543 36.8166 16.0275 36.8166C16.1007 36.8166 16.1708 36.8074 16.2409 36.7859L28.749 33.1959C29.06 33.1038 29.2826 32.8338 29.3131 32.5086L32.0574 1.53943C32.0788 1.3185 32.0056 1.10065 31.8562 0.938025ZM25.2789 11.616H10.5937L10.9444 15.6141H24.9252L23.8763 27.4304L16.0244 29.8176L15.9482 29.7931L8.18785 27.4273L7.764 22.613H11.5664L11.7311 24.4817L16.0702 25.3961L20.33 24.4817L20.7843 19.425H7.48042L6.44672 7.79585H25.6174L25.2789 11.616Z" fill="#C3CED9"/>
</svg>
