<svg width="479" height="323" viewBox="0 0 479 323" fill="none" xmlns="http://www.w3.org/2000/svg">
<path d="M254.61 224.076C295.763 221.988 333.466 221.043 339.544 224.451C342.676 226.211 347.547 249.349 349.785 264.824C362.426 263.315 378.311 261.927 394.18 260.845C391.824 248.939 390.37 241.48 385.023 229.976C384.213 228.233 386.432 227.529 387.334 229.121C392.692 238.929 396.29 249.6 397.965 260.649C419.451 259.238 440.65 258.386 453.937 258.386C452.428 245.383 444.07 215.419 429.088 200.055C417.54 188.212 395.136 177.672 375.308 175.177C374.999 177.925 373.939 180.534 372.244 182.72C370.549 184.905 368.285 186.58 365.7 187.563C355.107 191.725 335.772 192.819 318.524 183.345C300.328 188.536 266.982 208.34 254.61 224.076Z" fill="#0055CC"/>
<path d="M476.428 316.622C367.923 318.662 259.909 318.26 151.462 318.383C149.269 318.383 148.774 321.811 151.042 321.851C259.245 323.851 368.738 321.497 476.923 320.171C479.234 320.151 478.726 316.58 476.428 316.622Z" fill="#33BBFF"/>
<path d="M209.267 102.237C220.406 102.445 274.692 101.434 280.464 101.185C282.204 101.11 282.159 98.1069 280.464 98.1069C272.715 98.1069 221.736 99.0903 209.267 99.7442C208.965 99.7849 208.689 99.9337 208.488 100.163C208.288 100.392 208.178 100.686 208.178 100.99C208.178 101.295 208.288 101.589 208.488 101.818C208.689 102.047 208.965 102.196 209.267 102.237Z" fill="#33BBFF"/>
<path d="M134.285 50.0855C138.79 50.2968 230.509 50.0679 235.977 49.5297C236.753 49.4268 237.464 49.0392 237.971 48.4422C238.478 47.8453 238.745 47.0813 238.721 46.2984C238.697 45.5156 238.383 44.7695 237.84 44.2048C237.298 43.6402 236.565 43.2971 235.783 43.2422C210.258 43.5591 157.197 43.6899 134.429 44.1878C131.013 44.2658 130.727 49.9245 134.285 50.0855Z" fill="#33BBFF"/>
<path d="M262.674 146.873C256.771 146.873 211.891 146.37 208.712 147.278C207.63 147.59 207.203 149.34 208.501 149.71C211.891 150.683 256.537 150.19 262.701 150.19C268.866 150.19 274.849 150.411 280.885 150.19C282.731 150.122 282.595 147.029 280.764 146.948C274.758 146.682 268.692 146.873 262.674 146.873Z" fill="#33BBFF"/>
<path d="M208.005 170.37C207.624 170.483 207.303 170.742 207.112 171.091C206.921 171.439 206.875 171.849 206.984 172.231C207.502 173.992 205.176 173.388 281.664 174.663C282.086 174.62 282.477 174.422 282.762 174.108C283.046 173.793 283.204 173.384 283.204 172.959C283.204 172.535 283.046 172.126 282.762 171.811C282.477 171.496 282.086 171.298 281.664 171.255C208.287 170.071 212.841 169.995 208.005 170.37Z" fill="#33BBFF"/>
<path d="M280.029 126.768C280.438 126.74 280.822 126.561 281.107 126.266C281.392 125.971 281.557 125.581 281.57 125.171C281.582 124.761 281.442 124.361 281.177 124.048C280.911 123.736 280.539 123.534 280.132 123.481C269.217 123.179 218.424 122.756 209.209 124.592C207.7 124.891 208.037 127.09 209.478 127.218C217.272 127.92 229.188 125.301 280.029 126.768Z" fill="#33BBFF"/>
<path d="M347.112 82.0865C347.248 60.4223 348.254 33.3961 346.435 12.3757C346.385 12.0601 346.22 11.7741 345.972 11.5731C345.723 11.372 345.409 11.2701 345.09 11.287C344.771 11.3038 344.469 11.4383 344.244 11.6645C344.018 11.8906 343.884 12.1924 343.867 12.5115C343.276 22.5967 343.832 69.4562 343.867 82.3279C343.872 84.443 347.099 84.2041 347.112 82.0865Z" fill="#33BBFF"/>
<path d="M17.9287 12.3754C17.9287 10.4842 14.9509 10.1396 14.9258 12.0762C13.9349 92.194 15.2578 185.382 19.0856 265.085C19.1912 267.293 22.6066 266.753 22.4934 264.559C18.4493 180.249 17.813 96.7562 17.9287 12.3754Z" fill="#33BBFF"/>
<path d="M154.42 263.106C140.907 262.351 30.8678 262.943 26.5747 263.609C26.2572 263.711 25.9827 263.916 25.7939 264.191C25.6052 264.466 25.513 264.796 25.5317 265.129C25.5503 265.463 25.6789 265.78 25.8972 266.032C26.1155 266.285 26.4112 266.458 26.7382 266.524C68.3438 266.642 112.5 266.313 154.178 266.358C156.205 266.358 156.552 263.232 154.42 263.106Z" fill="#33BBFF"/>
<path fill-rule="evenodd" clip-rule="evenodd" d="M327.158 86.1555C319.291 87.6645 312.352 104.849 321.032 112.895C326.346 117.822 350.819 118.031 365.655 117.399C365.762 119.215 366.151 121.003 366.81 122.698C367.401 124.207 369.171 124.685 368.731 121.964C368.491 120.414 368.38 118.847 368.402 117.279C371.405 117.13 373.776 116.949 375.308 116.776C374.908 120.127 374.332 123.454 373.583 126.745C373.168 128.548 375.192 128.885 375.879 127.165C377.984 121.724 378.836 115.879 378.371 110.063C377.476 97.2441 341.529 83.394 327.158 86.1555ZM329.635 92.9258C326.016 93.7533 325.161 99.2511 324.832 102.191C324.266 107.221 321.059 103.7 321.829 99.2762C322.417 95.9413 325.267 90.5089 329.424 91.0496C329.665 91.0367 329.902 91.1163 330.086 91.2722C330.27 91.4281 330.388 91.6484 330.415 91.8881C330.442 92.1278 330.376 92.3688 330.231 92.5617C330.086 92.7546 329.873 92.8849 329.635 92.9258Z" fill="#0B0D0F"/>
<path fill-rule="evenodd" clip-rule="evenodd" d="M347.713 132.713C348.183 134.408 351.485 134.607 350.716 129.71C350.276 126.924 346.347 127.799 347.713 132.713Z" fill="#0B0D0F"/>
<path fill-rule="evenodd" clip-rule="evenodd" d="M376.238 130.686C367.621 131.408 363.368 147.192 358.791 148.704C355.592 149.763 348.417 145.16 341.166 144.665C333.915 144.169 329.786 147.232 328.433 146.586C327.079 145.94 328.013 140.281 328.013 138.961C328.013 137.64 327.293 136.918 326.016 139.831C324.738 142.743 312.279 170.7 317.699 178.222C325.445 188.971 357.056 191.247 366.869 183.853C379.173 174.583 368.703 144.811 371.733 137.054C372.303 135.946 373.212 135.048 374.327 134.491C375.443 133.935 376.707 133.749 377.935 133.961C382.08 135.757 380.941 148.045 374.316 146.121C372.651 145.64 372.274 147.733 373.813 148.54C378.313 150.907 382.729 147.217 383.317 141.033C383.758 136.35 382.168 130.191 376.238 130.686ZM341.931 158.603C335.686 158.603 334.423 156.126 333.898 152.064C339.303 153.226 344.903 153.128 350.265 151.78C349.694 155.492 348.902 158.613 341.931 158.613V158.603Z" fill="#0B0D0F"/>
<path fill-rule="evenodd" clip-rule="evenodd" d="M338.943 132.218C337.787 134.884 336.921 137.666 336.36 140.517C335.739 143.9 340.238 143.91 342.773 143.52C344.282 143.289 344.559 141.569 342.907 141.448C341.692 141.357 339.305 141.297 339.079 140.877C339.286 138.071 339.826 135.299 340.686 132.62C341.035 131.514 339.421 131.081 338.943 132.218Z" fill="#0B0D0F"/>
<path fill-rule="evenodd" clip-rule="evenodd" d="M331.801 132.829C333.199 132.296 333.31 128.531 332.115 127.829C329.1 126.039 328.68 134.006 331.801 132.829Z" fill="#0B0D0F"/>
<path fill-rule="evenodd" clip-rule="evenodd" d="M356.405 0.36377C240.091 0.45431 116.615 0.185208 2.07167 1.16103C0.120026 1.17612 0.0747566 6.19102 1.95095 6.2036C117.905 6.93043 240.031 6.02503 356.284 5.93449C358.372 5.93198 358.417 0.36377 356.405 0.36377Z" fill="#0B0D0F"/>
<path fill-rule="evenodd" clip-rule="evenodd" d="M223.889 268.096C204.021 266.914 173.245 263.025 154.704 255.065C152.32 254.039 140.542 255.963 127.17 249.784C125.772 249.14 125.216 251.109 126.524 251.917C133.357 256.127 141.988 257.248 149.87 257.502C151.989 257.448 154.088 257.917 155.982 258.868C177.827 266.703 200.833 270.813 224.04 271.028C225.947 271.056 225.886 268.216 223.889 268.096Z" fill="#0B0D0F"/>
<path fill-rule="evenodd" clip-rule="evenodd" d="M449.78 262.392C449.392 260.274 446.538 261.021 446.895 263.126C448.124 270.683 447.636 278.419 445.469 285.761C440.336 303.651 425.231 300.781 410.11 300.084C394.241 299.355 372.385 297.833 358.674 297.202C358.371 297.162 358.064 297.242 357.819 297.424C357.575 297.607 357.411 297.877 357.362 298.179C357.314 298.481 357.386 298.789 357.561 299.039C357.737 299.289 358.004 299.46 358.304 299.516C371.495 301.611 399.673 302.851 410.651 303.371C425.666 304.086 442.416 306.088 448.007 288.704C450.757 280.214 451.366 271.175 449.78 262.392Z" fill="#0B0D0F"/>
<path fill-rule="evenodd" clip-rule="evenodd" d="M351.359 271.355C370.79 268.265 390.364 266.156 410.006 265.035C410.324 265.006 410.618 264.856 410.827 264.616C411.036 264.375 411.145 264.063 411.129 263.745C411.113 263.426 410.975 263.126 410.744 262.908C410.512 262.689 410.205 262.568 409.886 262.57C390.109 263.382 370.399 265.388 350.864 268.576C350.495 268.643 350.168 268.853 349.955 269.161C349.741 269.469 349.659 269.849 349.726 270.217C349.792 270.586 350.003 270.913 350.311 271.126C350.618 271.34 350.998 271.422 351.367 271.355H351.359Z" fill="#0B0D0F"/>
<path fill-rule="evenodd" clip-rule="evenodd" d="M144.495 249.601C144.705 249.599 144.911 249.555 145.103 249.472C145.295 249.389 145.469 249.268 145.613 249.116C145.757 248.965 145.869 248.785 145.942 248.59C146.016 248.394 146.049 248.185 146.04 247.976C146.03 247.767 145.979 247.562 145.889 247.373C145.799 247.184 145.672 247.016 145.515 246.877C145.358 246.739 145.175 246.633 144.976 246.567C144.778 246.501 144.568 246.475 144.36 246.492C135.024 246.791 130.313 244.141 124.152 239.764C123.176 239.073 122.14 240.293 122.894 241.273C127.28 247.07 137.514 249.872 144.495 249.601Z" fill="#0B0D0F"/>
<path fill-rule="evenodd" clip-rule="evenodd" d="M160.026 233.68C161.163 235.652 163.547 235.919 165.67 236.399C178.207 239.248 206.895 238.298 220.202 238.142C222.094 238.119 221.711 235.675 219.767 235.692C210.052 235.79 180.729 236.067 166.18 233.381C163.494 232.878 163.632 233.275 162.262 231.117C159.671 227.028 155.808 222.026 151.123 221.943C149.724 221.918 149.614 223.266 150.806 223.864C154.945 225.941 158.213 229.419 160.026 233.68Z" fill="#0B0D0F"/>
<path fill-rule="evenodd" clip-rule="evenodd" d="M151.726 234.239C145.232 232.332 136.055 229.274 131.008 222.753C129.499 220.796 128.216 222.318 128.965 223.895C132.109 230.514 143.618 236.47 150.225 236.721C153.879 236.874 152.863 234.571 151.726 234.239Z" fill="#0B0D0F"/>
<path fill-rule="evenodd" clip-rule="evenodd" d="M125.427 229.106C125.219 228.853 124.923 228.69 124.599 228.649C124.275 228.608 123.947 228.693 123.684 228.887C123.421 229.08 123.241 229.367 123.183 229.688C123.124 230.009 123.191 230.341 123.369 230.615C125.767 234.054 128.88 236.934 132.495 239.056C136.111 241.179 140.143 242.493 144.314 242.91C144.643 242.922 144.966 242.826 145.235 242.636C145.504 242.447 145.704 242.175 145.804 241.862C145.904 241.549 145.9 241.212 145.79 240.902C145.681 240.591 145.474 240.325 145.2 240.144C142.994 239.193 133.618 238.582 125.427 229.106Z" fill="#0B0D0F"/>
<path fill-rule="evenodd" clip-rule="evenodd" d="M414.961 306.052C410.457 305.466 358.208 306.623 355.789 305.632C353.369 304.641 340.854 233.369 337.585 228.686C334.315 224.003 231.329 226.973 226.646 229.677C221.963 232.38 237.428 313.791 241.434 315.438C245.008 316.904 409.592 314.867 414.969 314.583C420.346 314.299 419.466 306.638 414.961 306.052ZM285.208 282.63C271.156 283.8 266.753 260.75 280.794 258.458C287.458 257.369 293.331 263.28 294.576 270.558C294.835 271.977 294.792 273.434 294.449 274.834C294.107 276.235 293.473 277.548 292.589 278.687C291.705 279.826 290.591 280.766 289.319 281.446C288.047 282.125 286.646 282.529 285.208 282.63Z" fill="#FF5511" fill-opacity="0.8"/>
<path fill-rule="evenodd" clip-rule="evenodd" d="M50.6098 107.087C50.6098 98.2506 50.6847 89.4194 50.6098 80.5828C90.2083 80.3542 129.832 80.1284 169.425 79.4092C169.458 87.142 169.425 94.8748 169.425 102.608C131.604 103.58 92.929 105.013 54.9945 105.696C52.5512 105.741 52.9478 109.409 55.3107 109.44C93.614 109.905 133.093 107.45 171.516 106.449C172.024 106.396 172.492 106.147 172.822 105.755C173.152 105.362 173.318 104.857 173.285 104.344C173.285 95.3152 173.255 86.2834 173.316 77.2544C173.262 76.7395 173.011 76.2656 172.617 75.932C172.223 75.5983 171.716 75.4309 171.202 75.4647C130.292 75.4898 89.3541 76.0501 48.4438 76.5993C47.9207 76.6537 47.4389 76.9097 47.0997 77.3136C46.7604 77.7175 46.5901 78.2378 46.6245 78.7653C46.8519 88.2988 47.3344 97.8101 47.6617 107.338C47.7089 109.276 50.607 109.002 50.6098 107.087Z" fill="#33BBFF"/>
<path fill-rule="evenodd" clip-rule="evenodd" d="M47.9978 170.01C89.3851 168.405 131.996 168.218 173.131 165.404C173.432 165.411 173.731 165.351 174.006 165.229C174.281 165.107 174.525 164.925 174.721 164.698C174.916 164.471 175.059 164.203 175.137 163.914C175.215 163.625 175.228 163.322 175.174 163.028C174.447 157.202 173.717 151.375 172.953 145.554C172.634 143.137 168.982 143.964 169.248 146.337C169.803 151.394 170.419 156.449 171.025 161.496C130.842 163.18 90.3038 164.318 50.2931 165.591C50.2931 157.689 50.2515 149.776 50.4763 141.888C90.9283 141.472 130.686 140.822 171.582 141.152C171.977 141.159 172.358 141.013 172.647 140.745C172.935 140.478 173.107 140.109 173.127 139.718C173.147 139.327 173.012 138.943 172.753 138.648C172.493 138.353 172.128 138.17 171.735 138.137C130.681 136.26 89.4545 137.087 48.2282 137.17C47.9087 137.153 47.5889 137.198 47.2873 137.305C46.9857 137.411 46.7082 137.575 46.4709 137.788C46.2335 138.002 46.041 138.259 45.9044 138.547C45.7677 138.834 45.6897 139.145 45.6748 139.463C46.0162 148.87 45.8885 158.31 45.9218 167.727C45.9004 168.301 46.1053 168.861 46.493 169.287C46.8808 169.713 47.4207 169.973 47.9978 170.01Z" fill="#33BBFF"/>
</svg>
