<svg width="484" height="328" viewBox="0 0 484 328" fill="none" xmlns="http://www.w3.org/2000/svg">
<path d="M0 19L343.5 29V279H25.5L0 19Z" fill="#E4E8ED"/>
<path d="M166 0H448L484 250H166V0Z" fill="#E4E8ED"/>
<path d="M257.61 229.076C298.763 226.988 336.466 226.043 342.544 229.451C345.676 231.211 350.547 254.349 352.785 269.824C365.426 268.315 381.311 266.927 397.18 265.845C394.824 253.939 393.37 246.48 388.023 234.976C387.213 233.233 389.432 232.529 390.334 234.121C395.692 243.929 399.29 254.6 400.965 265.649C422.451 264.238 443.65 263.386 456.937 263.386C455.428 250.383 447.07 220.419 432.088 205.055C420.54 193.212 398.136 182.672 378.308 180.177C377.999 182.925 376.939 185.534 375.244 187.72C373.549 189.905 371.285 191.58 368.7 192.563C358.107 196.725 338.772 197.819 321.524 188.345C303.328 193.536 269.982 213.34 257.61 229.076Z" fill="#0055CC"/>
<path d="M479.428 321.622C370.923 323.662 262.909 323.26 154.462 323.383C152.269 323.383 151.774 326.811 154.042 326.851C262.245 328.851 371.738 326.497 479.923 325.171C482.234 325.151 481.726 321.58 479.428 321.622Z" fill="#33BBFF"/>
<path d="M212.267 107.237C223.406 107.445 277.692 106.434 283.464 106.185C285.204 106.11 285.159 103.107 283.464 103.107C275.715 103.107 224.736 104.09 212.267 104.744C211.965 104.785 211.689 104.934 211.488 105.163C211.288 105.392 211.178 105.686 211.178 105.99C211.178 106.295 211.288 106.589 211.488 106.818C211.689 107.047 211.965 107.196 212.267 107.237Z" fill="#33BBFF"/>
<path d="M137.285 55.0855C141.79 55.2968 233.509 55.0679 238.977 54.5297C239.753 54.4268 240.464 54.0392 240.971 53.4422C241.478 52.8453 241.745 52.0813 241.721 51.2984C241.697 50.5156 241.383 49.7695 240.84 49.2048C240.298 48.6402 239.565 48.2971 238.783 48.2422C213.258 48.5591 160.197 48.6899 137.429 49.1878C134.013 49.2658 133.727 54.9245 137.285 55.0855Z" fill="#33BBFF"/>
<path d="M265.674 151.873C259.771 151.873 214.891 151.37 211.712 152.278C210.63 152.59 210.203 154.34 211.501 154.71C214.891 155.683 259.537 155.19 265.701 155.19C271.866 155.19 277.849 155.411 283.885 155.19C285.731 155.122 285.595 152.029 283.764 151.948C277.758 151.682 271.692 151.873 265.674 151.873Z" fill="#33BBFF"/>
<path d="M211.005 175.37C210.624 175.483 210.303 175.742 210.112 176.091C209.921 176.439 209.875 176.849 209.984 177.231C210.502 178.992 208.176 178.388 284.664 179.663C285.086 179.62 285.477 179.422 285.762 179.108C286.046 178.793 286.204 178.384 286.204 177.959C286.204 177.535 286.046 177.126 285.762 176.811C285.477 176.496 285.086 176.298 284.664 176.255C211.287 175.071 215.841 174.995 211.005 175.37Z" fill="#33BBFF"/>
<path d="M283.029 131.768C283.438 131.74 283.822 131.561 284.107 131.266C284.392 130.971 284.557 130.581 284.57 130.171C284.582 129.761 284.442 129.361 284.177 129.048C283.911 128.736 283.539 128.534 283.132 128.481C272.217 128.179 221.424 127.756 212.209 129.592C210.7 129.891 211.037 132.09 212.478 132.218C220.272 132.92 232.188 130.301 283.029 131.768Z" fill="#33BBFF"/>
<path d="M350.112 87.0865C350.248 65.4223 351.254 38.3961 349.435 17.3757C349.385 17.0601 349.22 16.7741 348.972 16.5731C348.723 16.372 348.409 16.2701 348.09 16.287C347.771 16.3038 347.469 16.4383 347.244 16.6645C347.018 16.8906 346.884 17.1924 346.867 17.5115C346.276 27.5967 346.832 74.4562 346.867 87.3279C346.872 89.443 350.099 89.2041 350.112 87.0865Z" fill="#33BBFF"/>
<path d="M20.9287 17.3754C20.9287 15.4842 17.9509 15.1396 17.9258 17.0762C16.9349 97.194 18.2578 190.382 22.0856 270.085C22.1912 272.293 25.6066 271.753 25.4934 269.559C21.4493 185.249 20.813 101.756 20.9287 17.3754Z" fill="#33BBFF"/>
<path d="M157.42 268.106C143.907 267.351 33.8678 267.943 29.5747 268.609C29.2572 268.711 28.9827 268.916 28.7939 269.191C28.6052 269.466 28.513 269.796 28.5317 270.129C28.5503 270.463 28.6789 270.78 28.8972 271.032C29.1155 271.285 29.4112 271.458 29.7382 271.524C71.3438 271.642 115.5 271.313 157.178 271.358C159.205 271.358 159.552 268.232 157.42 268.106Z" fill="#33BBFF"/>
<path fill-rule="evenodd" clip-rule="evenodd" d="M330.158 91.1555C322.291 92.6645 315.352 109.849 324.032 117.895C329.346 122.822 353.819 123.031 368.655 122.399C368.762 124.215 369.151 126.003 369.81 127.698C370.401 129.207 372.171 129.685 371.731 126.964C371.491 125.414 371.38 123.847 371.402 122.279C374.405 122.13 376.776 121.949 378.308 121.776C377.908 125.127 377.332 128.454 376.583 131.745C376.168 133.548 378.192 133.885 378.879 132.165C380.984 126.724 381.836 120.879 381.371 115.063C380.476 102.244 344.529 88.394 330.158 91.1555ZM332.635 97.9258C329.016 98.7533 328.161 104.251 327.832 107.191C327.266 112.221 324.059 108.7 324.829 104.276C325.417 100.941 328.267 95.5089 332.424 96.0496C332.665 96.0367 332.902 96.1163 333.086 96.2722C333.27 96.4281 333.388 96.6484 333.415 96.8881C333.442 97.1278 333.376 97.3688 333.231 97.5617C333.086 97.7546 332.873 97.8849 332.635 97.9258Z" fill="#0B0D0F"/>
<path fill-rule="evenodd" clip-rule="evenodd" d="M350.713 137.713C351.183 139.408 354.485 139.607 353.716 134.71C353.276 131.924 349.347 132.799 350.713 137.713Z" fill="#0B0D0F"/>
<path fill-rule="evenodd" clip-rule="evenodd" d="M379.238 135.686C370.621 136.408 366.368 152.192 361.791 153.704C358.592 154.763 351.417 150.16 344.166 149.665C336.915 149.169 332.786 152.232 331.433 151.586C330.079 150.94 331.013 145.281 331.013 143.961C331.013 142.64 330.293 141.918 329.016 144.831C327.738 147.743 315.279 175.7 320.699 183.222C328.445 193.971 360.056 196.247 369.869 188.853C382.173 179.583 371.703 149.811 374.733 142.054C375.303 140.946 376.212 140.048 377.327 139.491C378.443 138.935 379.707 138.749 380.935 138.961C385.08 140.757 383.941 153.045 377.316 151.121C375.651 150.64 375.274 152.733 376.813 153.54C381.313 155.907 385.729 152.217 386.317 146.033C386.758 141.35 385.168 135.191 379.238 135.686ZM344.931 163.603C338.686 163.603 337.423 161.126 336.898 157.064C342.303 158.226 347.903 158.128 353.265 156.78C352.694 160.492 351.902 163.613 344.931 163.613V163.603Z" fill="#0B0D0F"/>
<path fill-rule="evenodd" clip-rule="evenodd" d="M341.943 137.218C340.787 139.884 339.921 142.666 339.36 145.517C338.739 148.9 343.238 148.91 345.773 148.52C347.282 148.289 347.559 146.569 345.907 146.448C344.692 146.357 342.305 146.297 342.079 145.877C342.286 143.071 342.826 140.299 343.686 137.62C344.035 136.514 342.421 136.081 341.943 137.218Z" fill="#0B0D0F"/>
<path fill-rule="evenodd" clip-rule="evenodd" d="M334.801 137.829C336.199 137.296 336.31 133.531 335.115 132.829C332.1 131.039 331.68 139.006 334.801 137.829Z" fill="#0B0D0F"/>
<path fill-rule="evenodd" clip-rule="evenodd" d="M359.405 5.36377C243.091 5.45431 119.615 5.18521 5.07167 6.16103C3.12003 6.17612 3.07476 11.191 4.95095 11.2036C120.905 11.9304 243.031 11.025 359.284 10.9345C361.372 10.932 361.417 5.36377 359.405 5.36377Z" fill="#0B0D0F"/>
<path fill-rule="evenodd" clip-rule="evenodd" d="M226.889 273.096C207.021 271.914 176.245 268.025 157.704 260.065C155.32 259.039 143.542 260.963 130.17 254.784C128.772 254.14 128.216 256.109 129.524 256.917C136.357 261.127 144.988 262.248 152.87 262.502C154.989 262.448 157.088 262.917 158.982 263.868C180.827 271.703 203.833 275.813 227.04 276.028C228.947 276.056 228.886 273.216 226.889 273.096Z" fill="#0B0D0F"/>
<path fill-rule="evenodd" clip-rule="evenodd" d="M452.78 267.392C452.392 265.274 449.538 266.021 449.895 268.126C451.124 275.683 450.636 283.419 448.469 290.761C443.336 308.651 428.231 305.781 413.11 305.084C397.241 304.355 375.385 302.833 361.674 302.202C361.371 302.162 361.064 302.242 360.819 302.424C360.575 302.607 360.411 302.877 360.362 303.179C360.314 303.481 360.386 303.789 360.561 304.039C360.737 304.289 361.004 304.46 361.304 304.516C374.495 306.611 402.673 307.851 413.651 308.371C428.666 309.086 445.416 311.088 451.007 293.704C453.757 285.214 454.366 276.175 452.78 267.392Z" fill="#0B0D0F"/>
<path fill-rule="evenodd" clip-rule="evenodd" d="M354.359 276.355C373.79 273.265 393.364 271.156 413.006 270.035C413.324 270.006 413.618 269.856 413.827 269.616C414.036 269.375 414.145 269.063 414.129 268.745C414.113 268.426 413.975 268.126 413.744 267.908C413.512 267.689 413.205 267.568 412.886 267.57C393.109 268.382 373.399 270.388 353.864 273.576C353.495 273.643 353.168 273.853 352.955 274.161C352.741 274.469 352.659 274.849 352.726 275.217C352.792 275.586 353.003 275.913 353.311 276.126C353.618 276.34 353.998 276.422 354.367 276.355H354.359Z" fill="#0B0D0F"/>
<path fill-rule="evenodd" clip-rule="evenodd" d="M147.495 254.601C147.705 254.599 147.911 254.555 148.103 254.472C148.295 254.389 148.469 254.268 148.613 254.116C148.757 253.965 148.869 253.785 148.942 253.59C149.016 253.394 149.049 253.185 149.04 252.976C149.03 252.767 148.979 252.562 148.889 252.373C148.799 252.184 148.672 252.016 148.515 251.877C148.358 251.739 148.175 251.633 147.976 251.567C147.778 251.501 147.568 251.475 147.36 251.492C138.024 251.791 133.313 249.141 127.152 244.764C126.176 244.073 125.14 245.293 125.894 246.273C130.28 252.07 140.514 254.872 147.495 254.601Z" fill="#0B0D0F"/>
<path fill-rule="evenodd" clip-rule="evenodd" d="M163.026 238.68C164.163 240.652 166.547 240.919 168.67 241.399C181.207 244.248 209.895 243.298 223.202 243.142C225.094 243.119 224.711 240.675 222.767 240.692C213.052 240.79 183.729 241.067 169.18 238.381C166.494 237.878 166.632 238.275 165.262 236.117C162.671 232.028 158.808 227.026 154.123 226.943C152.724 226.918 152.614 228.266 153.806 228.864C157.945 230.941 161.213 234.419 163.026 238.68Z" fill="#0B0D0F"/>
<path fill-rule="evenodd" clip-rule="evenodd" d="M154.726 239.239C148.232 237.332 139.055 234.274 134.008 227.753C132.499 225.796 131.216 227.318 131.965 228.895C135.109 235.514 146.618 241.47 153.225 241.721C156.879 241.874 155.863 239.571 154.726 239.239Z" fill="#0B0D0F"/>
<path fill-rule="evenodd" clip-rule="evenodd" d="M128.427 234.106C128.219 233.853 127.923 233.69 127.599 233.649C127.275 233.608 126.947 233.693 126.684 233.887C126.421 234.08 126.241 234.367 126.183 234.688C126.124 235.009 126.191 235.341 126.369 235.615C128.767 239.054 131.88 241.934 135.495 244.056C139.111 246.179 143.143 247.493 147.314 247.91C147.643 247.922 147.966 247.826 148.235 247.636C148.504 247.447 148.704 247.175 148.804 246.862C148.904 246.549 148.9 246.212 148.79 245.902C148.681 245.591 148.474 245.325 148.2 245.144C145.994 244.193 136.618 243.582 128.427 234.106Z" fill="#0B0D0F"/>
<path fill-rule="evenodd" clip-rule="evenodd" d="M417.961 311.052C413.457 310.466 361.208 311.623 358.789 310.632C356.369 309.641 343.854 238.369 340.585 233.686C337.315 229.003 234.329 231.973 229.646 234.677C224.963 237.38 240.428 318.791 244.434 320.438C248.008 321.904 412.592 319.867 417.969 319.583C423.346 319.299 422.466 311.638 417.961 311.052ZM288.208 287.63C274.156 288.8 269.753 265.75 283.794 263.458C290.458 262.369 296.331 268.28 297.576 275.558C297.835 276.977 297.792 278.434 297.449 279.834C297.107 281.235 296.473 282.548 295.589 283.687C294.705 284.826 293.591 285.766 292.319 286.446C291.047 287.125 289.646 287.529 288.208 287.63Z" fill="#FF5511" fill-opacity="0.8"/>
<path fill-rule="evenodd" clip-rule="evenodd" d="M53.6098 112.087C53.6098 103.251 53.6847 94.4194 53.6098 85.5828C93.2083 85.3542 132.832 85.1284 172.425 84.4092C172.458 92.142 172.425 99.8748 172.425 107.608C134.604 108.58 95.929 110.013 57.9945 110.696C55.5512 110.741 55.9478 114.409 58.3107 114.44C96.614 114.905 136.093 112.45 174.516 111.449C175.024 111.396 175.492 111.147 175.822 110.755C176.152 110.362 176.318 109.857 176.285 109.344C176.285 100.315 176.255 91.2834 176.316 82.2544C176.262 81.7395 176.011 81.2656 175.617 80.932C175.223 80.5983 174.716 80.4309 174.202 80.4647C133.292 80.4898 92.3541 81.0501 51.4438 81.5993C50.9207 81.6537 50.4389 81.9097 50.0997 82.3136C49.7604 82.7175 49.5901 83.2378 49.6245 83.7653C49.8519 93.2988 50.3344 102.81 50.6617 112.338C50.7089 114.276 53.607 114.002 53.6098 112.087Z" fill="#33BBFF"/>
<path fill-rule="evenodd" clip-rule="evenodd" d="M50.9978 175.01C92.3851 173.405 134.996 173.218 176.131 170.404C176.432 170.411 176.731 170.351 177.006 170.229C177.281 170.107 177.525 169.925 177.721 169.698C177.916 169.471 178.059 169.203 178.137 168.914C178.215 168.625 178.228 168.322 178.174 168.028C177.447 162.202 176.717 156.375 175.953 150.554C175.634 148.137 171.982 148.964 172.248 151.337C172.803 156.394 173.419 161.449 174.025 166.496C133.842 168.18 93.3038 169.318 53.2931 170.591C53.2931 162.689 53.2515 154.776 53.4763 146.888C93.9283 146.472 133.686 145.822 174.582 146.152C174.977 146.159 175.358 146.013 175.647 145.745C175.935 145.478 176.107 145.109 176.127 144.718C176.147 144.327 176.012 143.943 175.753 143.648C175.493 143.353 175.128 143.17 174.735 143.137C133.681 141.26 92.4545 142.087 51.2282 142.17C50.9087 142.153 50.5889 142.198 50.2873 142.305C49.9857 142.411 49.7082 142.575 49.4709 142.788C49.2335 143.002 49.041 143.259 48.9044 143.547C48.7677 143.834 48.6897 144.145 48.6748 144.463C49.0162 153.87 48.8885 163.31 48.9218 172.727C48.9004 173.301 49.1053 173.861 49.493 174.287C49.8808 174.713 50.4207 174.973 50.9978 175.01Z" fill="#33BBFF"/>
</svg>
