<svg width="36" height="37" viewBox="0 0 36 37" fill="none" xmlns="http://www.w3.org/2000/svg">
<path d="M33.6021 0.249023H2.27907C1.02108 0.249023 0 1.27737 0 2.54432V34.0869C0 35.3539 1.02108 36.3822 2.27907 36.3822H33.5988C34.8568 36.3822 35.8779 35.3539 35.8779 34.0903V2.54432C35.8779 1.27737 34.8568 0.249023 33.6021 0.249023ZM19.6474 27.937C19.6474 31.3749 17.6453 32.941 14.7222 32.941C12.0794 32.941 10.1741 31.1565 9.39658 29.4997L12.0828 27.8631C12.6 28.7873 13.3875 29.4997 14.522 29.4997C15.6065 29.4997 16.2305 29.0729 16.2305 27.4128V16.595H19.6474V27.937ZM27.0586 32.941C24.032 32.941 22.3135 31.4052 21.3559 29.4997L23.9186 27.7791C24.616 28.9284 25.3768 30.0273 26.9851 30.0273C28.3366 30.0273 29.044 29.3485 29.044 28.4075C29.044 27.2851 28.3099 26.8852 26.825 26.2299L26.0108 25.877C23.6583 24.8688 22.0933 23.6052 22.0933 20.9302C22.0933 18.4702 23.9586 16.595 26.8684 16.595C28.9405 16.595 30.4288 17.3209 31.5032 19.223L28.9672 20.8663C28.4066 19.8548 27.806 19.4582 26.8684 19.4582C25.914 19.4582 25.31 20.0699 25.31 20.8663C25.31 21.851 25.914 22.2475 27.3122 22.8592L28.1263 23.212C30.8993 24.405 32.4609 25.6249 32.4609 28.3672C32.4609 31.3212 30.1552 32.941 27.0586 32.941Z" fill="#C3CED9"/>
</svg>
