<svg width="207" height="29" viewBox="0 0 207 29" fill="none" xmlns="http://www.w3.org/2000/svg">
<path d="M0.42 1.504H5.64V22.96H18.096V28H0.42V1.504ZM21.4305 19.936C21.4305 18.328 21.8025 16.888 22.5465 15.616C23.3145 14.344 24.3825 13.348 25.7505 12.628C27.1185 11.884 28.6905 11.512 30.4665 11.512C32.2665 11.512 33.8265 11.884 35.1465 12.628C36.4665 13.348 37.4745 14.344 38.1705 15.616C38.8905 16.888 39.2505 18.328 39.2505 19.936C39.2505 21.544 38.8905 22.996 38.1705 24.292C37.4745 25.564 36.4665 26.572 35.1465 27.316C33.8265 28.06 32.2425 28.432 30.3945 28.432C28.6665 28.432 27.1185 28.096 25.7505 27.424C24.4065 26.752 23.3505 25.78 22.5825 24.508C21.8145 23.236 21.4305 21.712 21.4305 19.936ZM26.5065 19.972C26.5065 20.788 26.6745 21.532 27.0105 22.204C27.3465 22.852 27.8025 23.368 28.3785 23.752C28.9545 24.136 29.6025 24.328 30.3225 24.328C31.1145 24.328 31.7985 24.136 32.3745 23.752C32.9505 23.368 33.3945 22.852 33.7065 22.204C34.0185 21.532 34.1745 20.788 34.1745 19.972C34.1745 19.132 34.0185 18.388 33.7065 17.74C33.3945 17.092 32.9505 16.576 32.3745 16.192C31.7985 15.808 31.1145 15.616 30.3225 15.616C29.6025 15.616 28.9545 15.808 28.3785 16.192C27.8025 16.576 27.3465 17.092 27.0105 17.74C26.6745 18.388 26.5065 19.132 26.5065 19.972ZM41.9969 19.936C41.9969 18.328 42.3689 16.888 43.1129 15.616C43.8809 14.344 44.9489 13.348 46.3169 12.628C47.6849 11.884 49.2569 11.512 51.0329 11.512C52.8329 11.512 54.3929 11.884 55.7129 12.628C57.0329 13.348 58.0409 14.344 58.7369 15.616C59.4569 16.888 59.8169 18.328 59.8169 19.936C59.8169 21.544 59.4569 22.996 58.7369 24.292C58.0409 25.564 57.0329 26.572 55.7129 27.316C54.3929 28.06 52.8089 28.432 50.9609 28.432C49.2329 28.432 47.6849 28.096 46.3169 27.424C44.9729 26.752 43.9169 25.78 43.1489 24.508C42.3809 23.236 41.9969 21.712 41.9969 19.936ZM47.0729 19.972C47.0729 20.788 47.2409 21.532 47.5769 22.204C47.9129 22.852 48.3689 23.368 48.9449 23.752C49.5209 24.136 50.1689 24.328 50.8889 24.328C51.6809 24.328 52.3649 24.136 52.9409 23.752C53.5169 23.368 53.9609 22.852 54.2729 22.204C54.5849 21.532 54.7409 20.788 54.7409 19.972C54.7409 19.132 54.5849 18.388 54.2729 17.74C53.9609 17.092 53.5169 16.576 52.9409 16.192C52.3649 15.808 51.6809 15.616 50.8889 15.616C50.1689 15.616 49.5209 15.808 48.9449 16.192C48.3689 16.576 47.9129 17.092 47.5769 17.74C47.2409 18.388 47.0729 19.132 47.0729 19.972ZM68.3593 12.268L68.7553 15.04L68.6833 14.824C69.3073 13.768 70.0873 12.952 71.0233 12.376C71.9593 11.776 73.0873 11.476 74.4073 11.476C75.2713 11.476 76.0273 11.596 76.6753 11.836C77.3473 12.076 77.9113 12.436 78.3673 12.916C78.8233 13.372 79.1353 13.972 79.3033 14.716L79.1233 14.752C79.7953 13.768 80.5993 12.976 81.5353 12.376C82.4953 11.776 83.4913 11.476 84.5233 11.476C86.0833 11.476 87.3193 11.92 88.2313 12.808C89.1673 13.672 89.6473 14.8 89.6713 16.192V28H84.6673V18.28C84.6433 17.584 84.5353 17.02 84.3433 16.588C84.1513 16.132 83.7073 15.88 83.0113 15.832C82.1953 15.832 81.4993 16.12 80.9233 16.696C80.3713 17.248 79.9513 17.968 79.6633 18.856C79.3993 19.72 79.2673 20.62 79.2673 21.556V28H74.2273V18.28C74.2033 17.584 74.0713 17.02 73.8313 16.588C73.6153 16.132 73.1593 15.88 72.4633 15.832C71.6713 15.832 70.9993 16.12 70.4473 16.696C69.9193 17.248 69.5113 17.956 69.2233 18.82C68.9593 19.684 68.8273 20.572 68.8273 21.484V28H63.7873V12.268H68.3593ZM101.489 28.432C100.025 28.432 98.6934 28.144 97.4934 27.568C96.3174 26.968 95.3814 26.056 94.6854 24.832C93.9894 23.608 93.6414 22.048 93.6414 20.152C93.6414 18.376 94.0014 16.84 94.7214 15.544C95.4414 14.248 96.3894 13.252 97.5654 12.556C98.7414 11.836 99.9894 11.476 101.309 11.476C102.869 11.476 104.045 11.74 104.837 12.268C105.653 12.772 106.325 13.336 106.853 13.96L106.637 14.572L107.105 12.268H111.785V28H106.745V24.58L107.141 25.66C107.093 25.66 106.949 25.804 106.709 26.092C106.469 26.356 106.109 26.68 105.629 27.064C105.173 27.424 104.597 27.736 103.901 28C103.229 28.288 102.425 28.432 101.489 28.432ZM102.929 24.328C103.529 24.328 104.069 24.244 104.549 24.076C105.029 23.884 105.449 23.62 105.809 23.284C106.169 22.924 106.481 22.48 106.745 21.952V18.1C106.553 17.572 106.265 17.128 105.881 16.768C105.497 16.384 105.041 16.096 104.513 15.904C103.985 15.688 103.397 15.58 102.749 15.58C102.029 15.58 101.357 15.772 100.733 16.156C100.133 16.516 99.6534 17.02 99.2934 17.668C98.9334 18.316 98.7534 19.06 98.7534 19.9C98.7534 20.74 98.9454 21.496 99.3294 22.168C99.7134 22.84 100.217 23.368 100.841 23.752C101.489 24.136 102.185 24.328 102.929 24.328ZM150.506 26.632C149.858 27.16 149.126 27.568 148.31 27.856C147.494 28.144 146.642 28.288 145.754 28.288C144.314 28.288 143.03 27.976 141.902 27.352C140.774 26.704 139.886 25.828 139.238 24.724C138.59 23.62 138.266 22.36 138.266 20.944C138.266 19.528 138.602 18.268 139.274 17.164C139.946 16.06 140.834 15.196 141.938 14.572C143.066 13.924 144.29 13.6 145.61 13.6C146.594 13.6 147.506 13.744 148.346 14.032C149.186 14.32 149.918 14.728 150.542 15.256L149.642 16.408C149.138 16 148.55 15.664 147.878 15.4C147.206 15.136 146.486 15.004 145.718 15.004C144.662 15.004 143.69 15.268 142.802 15.796C141.938 16.324 141.242 17.044 140.714 17.956C140.21 18.844 139.958 19.84 139.958 20.944C139.958 22.024 140.21 23.02 140.714 23.932C141.242 24.82 141.95 25.528 142.838 26.056C143.75 26.584 144.758 26.848 145.862 26.848C146.582 26.848 147.254 26.74 147.878 26.524C148.502 26.284 149.066 25.972 149.57 25.588L150.506 26.632ZM153.84 20.872C153.84 19.504 154.164 18.256 154.812 17.128C155.484 16 156.384 15.112 157.512 14.464C158.664 13.792 159.948 13.456 161.364 13.456C162.804 13.456 164.088 13.792 165.216 14.464C166.344 15.112 167.232 16 167.88 17.128C168.528 18.256 168.852 19.504 168.852 20.872C168.852 22.24 168.528 23.488 167.88 24.616C167.232 25.744 166.332 26.644 165.18 27.316C164.052 27.964 162.78 28.288 161.364 28.288C159.924 28.288 158.64 27.976 157.512 27.352C156.384 26.704 155.484 25.828 154.812 24.724C154.164 23.596 153.84 22.312 153.84 20.872ZM155.532 20.908C155.532 22.012 155.784 23.02 156.288 23.932C156.816 24.82 157.512 25.528 158.376 26.056C159.264 26.584 160.248 26.848 161.328 26.848C162.408 26.848 163.38 26.584 164.244 26.056C165.132 25.528 165.828 24.82 166.332 23.932C166.86 23.02 167.124 22.012 167.124 20.908C167.124 19.804 166.86 18.808 166.332 17.92C165.828 17.008 165.132 16.288 164.244 15.76C163.38 15.208 162.408 14.932 161.328 14.932C160.224 14.932 159.228 15.22 158.34 15.796C157.476 16.348 156.792 17.08 156.288 17.992C155.784 18.904 155.532 19.876 155.532 20.908ZM179.636 28.288C178.316 28.288 177.116 27.976 176.036 27.352C174.956 26.704 174.092 25.816 173.444 24.688C172.82 23.56 172.508 22.288 172.508 20.872C172.508 19.36 172.832 18.052 173.48 16.948C174.128 15.844 175.004 14.992 176.108 14.392C177.236 13.792 178.472 13.492 179.816 13.492C181.16 13.492 182.432 13.84 183.632 14.536C184.856 15.232 185.744 16.144 186.296 17.272L186.008 18.064V0.639998H187.7V28H185.972V23.68L186.332 24.472C185.732 25.6 184.832 26.524 183.632 27.244C182.432 27.94 181.1 28.288 179.636 28.288ZM180.068 26.812C181.148 26.812 182.12 26.584 182.984 26.128C183.848 25.648 184.544 25.012 185.072 24.22C185.6 23.404 185.9 22.492 185.972 21.484V19.684C185.804 18.772 185.432 17.956 184.856 17.236C184.28 16.516 183.584 15.952 182.768 15.544C181.952 15.112 181.052 14.896 180.068 14.896C178.988 14.896 178.004 15.148 177.116 15.652C176.228 16.156 175.52 16.852 174.992 17.74C174.464 18.628 174.2 19.66 174.2 20.836C174.2 21.94 174.464 22.948 174.992 23.86C175.52 24.748 176.228 25.468 177.116 26.02C178.028 26.548 179.012 26.812 180.068 26.812ZM200.211 28.288C198.747 28.288 197.451 27.964 196.323 27.316C195.195 26.668 194.307 25.792 193.659 24.688C193.035 23.56 192.723 22.3 192.723 20.908C192.723 19.54 193.059 18.292 193.731 17.164C194.403 16.036 195.303 15.136 196.431 14.464C197.583 13.792 198.855 13.456 200.247 13.456C201.927 13.456 203.331 13.948 204.459 14.932C205.611 15.916 206.439 17.2 206.943 18.784L194.631 23.536L194.127 22.312L205.395 17.92L205.035 18.424C204.627 17.464 204.003 16.636 203.163 15.94C202.347 15.244 201.339 14.896 200.139 14.896C199.059 14.896 198.087 15.16 197.223 15.688C196.359 16.216 195.663 16.924 195.135 17.812C194.631 18.7 194.379 19.708 194.379 20.836C194.379 21.892 194.619 22.876 195.099 23.788C195.603 24.7 196.299 25.432 197.187 25.984C198.075 26.536 199.095 26.812 200.247 26.812C201.015 26.812 201.747 26.668 202.443 26.38C203.163 26.092 203.799 25.72 204.351 25.264L205.215 26.488C204.543 27.016 203.763 27.448 202.875 27.784C202.011 28.12 201.123 28.288 200.211 28.288Z" fill="#0B0D0F"/>
<path d="M118.059 23.644H132.747V28H118.059V23.644Z" fill="url(#paint0_linear_242_529)"/>
<defs>
<linearGradient id="paint0_linear_242_529" x1="104" y1="-1" x2="156" y2="-1" gradientUnits="userSpaceOnUse">
<stop stop-color="#33BBFF"/>
<stop offset="1" stop-color="#0033BB"/>
</linearGradient>
</defs>
</svg>
