<svg width="333" height="252" viewBox="0 0 333 252" fill="none" xmlns="http://www.w3.org/2000/svg">
<path d="M0.769531 48.1082L236.375 54.9671V226.441H18.2599L0.769531 48.1082Z" fill="#E4E8ED"/>
<path d="M114.628 35.0759H308.051L332.743 206.55H114.628V35.0759Z" fill="#E4E8ED"/>
<path d="M71.5531 140.452C71.4552 140.291 62.7257 124.575 56.5576 113.995C56.416 113.633 56.1384 113.341 55.7842 113.181C55.4299 113.021 55.0272 113.006 54.6621 113.139C43.1944 115.277 33.3269 117.072 18.4678 119.948C23.0709 130.88 19.2703 122.744 30.8776 147.697C31.0494 148.128 31.2211 148.472 31.8246 148.3C36.2207 147.438 40.6168 146.763 45.0097 145.893C52.253 144.437 69.9144 140.882 71.5531 140.452Z" fill="#1177FF"/>
<path d="M130.755 73.8376C130.412 73.8376 129.892 73.2342 129.808 72.8024C129.274 70.0482 119.711 17.9981 119.467 17.133C119.101 15.849 119.637 15.0465 121.018 14.886C125.833 14.3258 195.129 6.86098 199.095 6.44047C199.955 6.35059 200.486 6.52233 200.732 7.47409C201.462 10.3085 213.129 59.3557 214.088 63.5753C214.153 63.8273 214.159 64.0905 214.107 64.3453C214.055 64.6001 213.947 64.84 213.789 65.047C213.632 65.254 213.43 65.4229 213.198 65.541C212.967 65.6591 212.711 65.7234 212.451 65.7292C209.004 65.994 131.962 73.9227 130.755 73.8376Z" fill="#112233"/>
<path d="M73.0171 154.929C72.6351 152.258 71.6737 150.232 74.0523 149.501C75.8772 148.937 75.8611 148.982 75.8611 145.881C75.6883 142.487 76.7607 139.147 78.8769 136.487C80.2648 134.47 82.0373 132.746 84.0928 131.415C86.1483 130.085 88.4463 129.173 90.855 128.732C94.7841 127.904 95.776 127.384 106.281 128.645C109.972 129.088 120.19 131.155 124.899 131.231C130.693 131.324 135.795 129.286 134.03 123.732C131.612 116.088 124.513 112.873 116.88 108.048C113.049 105.626 109.886 103.455 112.657 99.3444C113.97 97.5312 115.719 96.0787 117.742 95.1216C123.369 92.1716 123.128 92.5359 125.927 92.1042C125.927 91.9325 125.927 91.5874 126.099 91.5023C127.223 90.6404 126.862 89.6084 126.616 88.5716C126.204 86.253 126.292 83.8732 126.874 81.5914C127.047 80.9627 127.416 80.4056 127.928 80.0014C128.439 79.5972 129.067 79.367 129.718 79.3445C133.431 79.0556 214.44 70.5619 217.881 70.1253C219.159 69.9121 220.468 69.9954 221.708 70.3689C222.948 70.7423 224.086 71.396 225.033 72.2792C232.772 79.0925 247.415 90.4719 255.022 96.7539C255.76 97.2274 256.315 97.937 256.597 98.7666C256.878 99.5963 256.871 100.497 256.574 101.322C256.21 102.386 255.888 106.045 251.317 106.578C237.441 108.196 180.581 113.878 161.437 116.144C151.365 117.335 140.82 110.416 134.291 102.785C132.158 100.454 130.307 97.8802 128.775 95.1168C128.603 94.6 127.475 94.677 127.224 94.4266C126.621 93.4781 125.846 93.8232 125.07 94.0816C120.922 95.0817 117.168 97.3036 114.296 100.46C111.109 104.342 117.684 106.092 126.361 111.921C131.112 115.112 136.294 120.83 136.185 126.312C136.114 127.533 135.716 128.713 135.034 129.729C134.352 130.746 133.411 131.56 132.307 132.09C123.196 136.118 107.226 129.475 96.113 130.194C89.2115 130.639 83.4833 133.317 79.9121 139.503C78.4263 141.966 77.7062 144.815 77.8433 147.689C77.8433 148.379 78.015 148.896 78.8769 149.067C80.5156 149.241 80.7901 150.614 81.1239 151.911C81.5797 153.715 81.5589 153.677 83.3709 153.463C108.813 150.491 98.6184 151.242 106.897 150.446C108.096 150.426 109.276 150.747 110.299 151.372C111.322 151.997 112.146 152.901 112.675 153.977C116.482 162.292 130.319 189.703 130.686 194.221C130.856 195.212 130.637 196.231 130.076 197.066C129.514 197.9 128.652 198.486 127.669 198.702C124.423 200.078 121.044 201.117 117.586 201.804C117.397 201.849 83.8284 208.884 78.6346 209.388C77.0809 209.539 71.6544 209.82 69.4138 208.613C64.0596 206.939 60.0455 197.413 57.7808 192.242C47.8619 169.59 48.0224 168.969 47.6115 164.408C47.491 163.353 47.7688 162.291 48.3905 161.43C49.0122 160.569 49.9329 159.971 50.9724 159.753C56.2207 158.428 61.4787 157.311 66.7431 156.134C70.1088 155.38 72.7041 155.243 73.0171 154.929ZM52.2484 171.045C52.0908 171.072 51.9417 171.136 51.8124 171.23C51.6831 171.324 51.577 171.446 51.5022 171.588C51.4274 171.729 51.3859 171.885 51.3809 172.045C51.3758 172.205 51.4074 172.364 51.4732 172.51C54.1583 178.574 65.8652 203.016 66.382 203.705C67.024 204.347 126.708 192.539 126.878 192.502C127.059 192.463 127.228 192.384 127.375 192.271C127.521 192.158 127.64 192.013 127.723 191.848C127.805 191.683 127.85 191.501 127.853 191.316C127.856 191.131 127.817 190.948 127.74 190.78C124.895 184.873 114.468 162.599 113.616 160.875C113.511 160.724 113.368 160.604 113.201 160.529C113.034 160.453 112.849 160.424 112.667 160.445C105.942 161.565 61.2107 169.407 52.2484 171.045V171.045ZM131.1 94.9499C132.886 98.305 135.15 101.382 137.822 104.086C146.11 111.95 155.5 114.743 158.504 114.518C161.26 114.308 244.255 105.329 250.283 104.609C251.271 104.561 252.212 104.176 252.95 103.517C253.687 102.858 254.176 101.966 254.334 100.989C254.472 100.469 254.465 99.9204 254.313 99.4036C254.161 98.8869 253.87 98.4217 253.472 98.0587C243.431 89.7529 233.368 81.2833 223.396 72.8956C222.901 72.4143 222.301 72.0547 221.643 71.8453C220.985 71.6358 220.287 71.5822 219.605 71.6886C213.588 72.5762 138.947 80.5257 130.412 81.4277C127.47 81.7375 128.235 82.5272 128.947 89.6999C129.024 90.4767 129.463 90.7335 130.23 90.7335C131.058 90.7213 131.87 90.9621 132.558 91.4237C133.2 92.1066 133.673 92.9315 133.936 93.8312C134.282 94.5213 133.936 94.9547 133.161 94.9547C132.477 95.0392 131.784 95.0375 131.1 94.9499V94.9499Z" fill="#112233"/>
<path d="M243.651 35.2294C242.876 32.6437 242.186 30.1447 241.324 27.7324C241.026 23.9234 241.287 20.0912 242.099 16.3578C243.383 15.7158 245.081 19.3896 247.357 21.7859C249.161 23.6862 249.425 26.0953 250.115 28.3359C250.46 29.4594 250.803 30.4898 251.148 31.6101C251.195 31.6155 251.243 31.6105 251.287 31.5956C251.332 31.5806 251.373 31.556 251.407 31.5234C251.235 30.3999 250.545 19.2869 250.545 15.1524C250.545 12.5844 252.485 9.93138 254.941 11.1014C257.295 12.2249 257.493 14.5795 257.87 17.2197C259.681 17.0479 259.907 17.2197 260.278 19.0301C260.648 20.9081 260.648 22.8402 260.278 24.7182C260.099 25.4276 259.868 25.7198 259.416 25.4935C259.242 23.2465 258.726 18.685 258.639 18.685C258.483 19.28 258.369 19.8849 258.295 20.4955C258.554 24.5454 258.899 28.5954 259.329 32.6453C259.329 32.8861 259.563 34.1235 260.278 33.7688C261.382 27.3128 262.851 20.9243 264.677 14.634C265.11 12.9472 266.314 11.3679 268.038 11.9617C268.498 12.2627 268.859 12.6938 269.074 13.2002C269.288 13.7066 269.348 14.2655 269.245 14.8058C269.245 14.9775 269.158 15.0642 269.158 15.2375C269.59 15.3993 269.957 15.6966 270.206 16.0849C270.455 16.4732 270.571 16.9316 270.537 17.3914C270.58 19.3752 270.58 21.2675 270.537 23.2513C270.521 23.4624 270.428 23.6604 270.276 23.8081C270.125 23.9559 269.924 24.0433 269.713 24.0539C269.502 24.0646 269.293 23.9977 269.128 23.8659C268.962 23.7341 268.85 23.5464 268.813 23.3379C268.774 22.7 268.688 22.0658 268.555 21.4408C264.027 44.081 267.254 33.0947 272.691 21.6992C273.17 20.8579 273.749 20.0772 274.414 19.3736C275.077 18.387 275.829 17.4639 276.661 16.6162C276.788 16.4011 276.962 16.2187 277.172 16.0837C277.382 15.9488 277.62 15.8651 277.868 15.8394C278.644 15.8394 278.741 16.3562 278.815 17.133C279.022 19.2837 279.334 21.3558 279.592 23.5097C279.735 24.2287 279.491 24.5385 274.766 34.971C274.416 35.7446 274.766 36.1651 275.369 36.523C276.068 36.9403 276.835 37.3849 277.523 37.7284C278.058 38.004 278.485 38.4513 278.735 38.9985C278.985 39.5457 279.044 40.1611 278.902 40.7458C278.225 45.0696 272.545 76.4105 271.922 80.2994C270.402 89.7801 256.549 87.9906 247.189 85.9875C242.488 84.9828 242.818 82.1355 241.674 77.1985C241.054 74.5294 233.986 44.4325 232.798 40.1423C231.693 36.1812 239.596 35.0111 243.651 35.2294ZM276.233 41.6927C262.444 44.6235 248.827 44.8819 235.384 40.1423C239.117 58.8036 240.873 63.8851 245.382 81.0698C245.94 83.2028 247.292 82.93 248.052 83.3168C258.435 84.4403 262.473 85.7243 267.097 83.5752C267.745 83.3419 268.319 82.939 268.759 82.4086C269.198 81.8782 269.487 81.2396 269.596 80.5594C275.925 46.6923 273.986 54.6852 276.223 41.6927H276.233ZM243.226 27.3007C243.907 31.5263 245.06 35.6621 246.664 39.6303C246.759 39.8382 246.908 40.0168 247.096 40.1471C248.646 40.4055 250.197 40.5772 251.835 40.7506C251.575 39.7089 247.577 26.9476 247.526 26.7871C246.751 24.8017 242.873 26.8705 243.216 27.3007H243.226ZM275.543 24.8017C275.113 24.8884 274.679 25.2431 274.251 25.1468C273.904 25.0697 273.647 24.5433 273.302 24.1132C270.975 29.5413 268.132 34.7062 266.064 40.4007C267.614 40.2274 268.908 40.0556 270.2 39.8839C270.827 39.8839 270.904 39.5051 276.318 26.8705C276.604 26.2815 276.013 25.6026 275.533 24.8017H275.543ZM263.048 23.5963C261.841 29.5348 260.801 35.0577 259.6 40.8308C260.807 40.7458 261.582 40.6591 262.444 40.6591C263.873 40.6591 263.061 40.696 266.752 24.5433C265.45 24.1998 264.244 23.9398 263.038 23.5963H263.048ZM257.876 40.8308C257.332 33.2199 256.958 29.6937 256.753 26.1804C256.644 24.2865 256.408 23.9334 254.426 24.1132C253.901 24.228 253.384 24.3716 252.875 24.5433C253.392 29.973 253.909 35.4027 254.341 40.8308H257.876ZM256.326 22.0523C255.981 19.3816 255.652 16.5343 255.119 13.7802C254.785 12.0548 253.05 12.9183 252.792 13.3484C252.449 13.8249 252.268 14.3986 252.275 14.9855C252.413 20.7732 252.792 21.3188 252.792 22.8275C253.989 22.5611 255.023 22.2963 256.316 22.0443L256.326 22.0523ZM245.725 23.5177C244.088 21.0187 244.088 21.0187 242.968 21.3638C242.451 25.2415 242.106 24.638 243.226 24.638C244.137 24.4751 244.993 24.0872 245.715 23.5097L245.725 23.5177ZM275.026 22.6558C276.233 21.9673 276.233 21.9673 277.433 23.6894H277.692C277.607 22.5691 277.521 21.4489 277.433 20.3286C276.983 20.1586 276.522 20.0149 276.055 19.8984C274.413 21.6992 274.413 21.6992 275.016 22.6478L275.026 22.6558Z" fill="#112233"/>
<path d="M27.2569 238.09C26.4281 238.207 25.5868 238.207 24.7579 238.09C24.6021 238.055 24.4576 237.981 24.3374 237.875C24.2172 237.77 24.1251 237.636 24.0694 237.487C23.9827 237.315 24.3278 236.97 24.4995 236.711C24.8003 236.406 25.1647 236.17 25.567 236.021C25.9692 235.872 26.3994 235.813 26.8268 235.85C41.9395 233.015 287.389 188.181 314.743 182.851C317.276 182.356 318.816 184.812 316.812 185.258C315.032 185.664 27.4174 238.061 27.2569 238.09Z" fill="#112233"/>
<path d="M320.344 192.417C320.644 192.301 320.975 192.298 321.277 192.409C321.578 192.52 321.829 192.738 321.981 193.02C321.81 193.967 321.034 194.144 320.259 194.399C222.515 217.814 38.4211 251.62 29.584 251.62C29.584 247.934 87.8503 243.305 320.344 192.417Z" fill="#112233"/>
<path d="M69.9144 101.758C67.5069 103.827 60.7017 102.779 58.2813 101.242C56.6215 100.187 55.2644 98.7185 54.3429 96.981C53.4214 95.2436 52.9673 93.2965 53.0249 91.3307C52.7762 83.0007 59.8478 80.2369 64.3129 84.0055C64.658 84.2639 65.0031 84.609 65.2615 84.0055C65.9473 82.6871 66.9533 81.5621 68.1873 80.734C69.4213 79.9058 70.8435 79.401 72.3235 79.2659C81.0065 77.7668 85.4106 76.8664 98.4352 79.3526C102.319 80.0941 104.374 83.402 104.037 87.6247C103.489 93.7177 101.08 99.4946 97.1352 104.171C95.7306 105.932 93.6947 107.077 91.4599 107.361C87.4971 107.971 83.4765 108.116 79.4802 107.792C74.5849 107.384 71.5499 103.16 69.9144 101.758ZM66.4684 86.4194C66.1958 89.5185 66.7299 92.6353 68.0189 95.4668C69.7241 98.9143 72.1662 101.945 75.1723 104.344C76.262 105.337 77.6654 105.916 79.1383 105.981C83.8343 106.345 88.5578 106.084 93.1853 105.206C93.6539 105.068 94.073 104.799 94.3922 104.429C99.0146 99.6606 102.756 92.382 102.493 85.5575C102.343 81.6927 98.3052 80.5194 94.4789 79.9561C85.9467 78.6977 67.2998 77.8519 66.4684 86.4194V86.4194ZM80.6871 80.2995C94.7453 78.855 103.756 83.227 100.077 84.8674C93.5223 87.7901 82.5826 89.4753 70.0877 86.246C68.7925 85.9122 66.6337 84.1596 69.4842 82.5401C71.4616 81.4134 78.2732 80.5467 80.6871 80.2995V80.2995ZM64.4862 87.1079C64.5923 86.5769 64.5003 86.0254 64.2278 85.5575C63.6766 84.881 62.9552 84.3634 62.1377 84.0579C61.3202 83.7524 60.4362 83.6701 59.5764 83.8193C58.7165 83.9684 57.9119 84.3438 57.2451 84.9068C56.5784 85.4698 56.0735 86.2002 55.7823 87.0229C55.2311 88.3053 54.9559 89.6893 54.9745 91.085C54.9931 92.4807 55.3052 93.8569 55.8904 95.1242C56.4755 96.3914 57.3208 97.5214 58.3712 98.4406C59.4216 99.3599 60.6536 100.048 61.9873 100.46C64.2667 101.366 66.7833 101.487 69.1391 100.803C68.709 100.2 68.2773 99.6799 67.9322 99.1663C62.9069 100.954 53.1951 91.6003 59.4883 87.1882C60.1945 86.6224 61.0688 86.3076 61.9735 86.293C62.8783 86.2785 63.7622 86.5652 64.4862 87.1079V87.1079ZM67.502 98.5692C65.7335 95.748 64.7515 92.5052 64.658 89.1768C64.5194 88.8319 64.3052 88.5225 64.0311 88.2715C63.757 88.0205 63.4301 87.8342 63.0744 87.7264C62.7187 87.6185 62.3434 87.5919 61.9761 87.6485C61.6087 87.7051 61.2588 87.8434 60.952 88.0533C56.1868 90.6983 62.1012 98.5692 67.502 98.5692V98.5692ZM79.7386 83.0585C77.3311 81.8516 73.0168 82.2817 71.6381 84.4372C74.3955 83.9284 76.8913 83.4887 79.7386 83.0585Z" fill="#112233"/>
<path d="M125.327 77.9737C125.672 81.593 123.788 78.4889 123.69 77.8871C123.152 74.6016 112.978 21.5307 112.572 18.6834C112.181 16.8659 112.36 14.972 113.085 13.2601C113.81 11.5481 115.046 10.1015 116.623 9.11763C117.537 8.64917 118.531 8.35679 119.552 8.25575C121.788 7.88178 194.012 1.13757 197.112 1.0172C206.784 0.641625 205.887 1.92563 219.948 67.5461C219.948 69.3565 218.589 68.7482 218.398 67.9762C218.162 67.0228 217.772 66.0871 217.536 65.1337C205.039 14.6083 205.203 8.14661 204.093 6.10184C203.657 5.08948 202.917 4.23817 201.974 3.66652C201.032 3.09487 199.935 2.83136 198.836 2.9127C196.251 3.08925 119.288 10.1352 118.002 10.9281C114.994 12.769 114.952 15.3996 114.554 17.8215C114.641 17.9082 124.465 72.9758 125.327 77.9737Z" fill="#112233"/>
<path d="M63.7967 143.726C61.8226 144.113 54.4877 145.693 52.7672 146.053C50.0852 146.613 43.577 147.57 32.4286 150.017C31.9933 150.148 31.5359 150.189 31.0843 150.138C30.6327 150.086 30.1962 149.944 29.8013 149.719C29.4064 149.493 29.0614 149.19 28.7871 148.828C28.5129 148.465 28.3151 148.051 28.2059 147.61C16.4701 119.734 16.8649 120.564 17.0896 118.993C17.0896 118.46 16.6322 118.702 48.3711 112.616C50.6181 112.188 52.8571 111.775 55.0928 111.237C56.1297 110.989 56.6449 111.582 57.075 112.361C67.7643 131.602 63.3891 124.559 71.3804 137.524C72.0705 138.648 72.6018 139.755 73.2759 140.8C73.7172 141.482 73.3609 141.999 72.674 142.179C72.0769 142.331 66.2989 143.236 63.7967 143.726ZM71.5537 140.452C71.4558 140.291 62.7262 124.575 56.5582 113.995C56.4166 113.633 56.1389 113.341 55.7847 113.181C55.4305 113.021 55.0278 113.006 54.6627 113.139C43.195 115.277 33.3274 117.072 18.4683 119.948C23.0715 130.879 19.2708 122.744 30.8782 147.697C31.0499 148.128 31.2217 148.472 31.8251 148.3C36.2212 147.438 40.6173 146.762 45.0102 145.893C52.2536 144.437 69.915 140.882 71.5537 140.452Z" fill="#191919"/>
<path d="M22.1742 70.1256C20.3204 70.4963 19.4361 68.0086 21.3123 67.5399C23.7198 67.251 113.141 59.4186 116.02 59.1811C117.225 59.0816 117.657 59.2661 117.744 60.128C117.831 60.9899 117.571 61.4217 116.62 61.4217C113.393 61.4281 22.683 70.1256 22.1742 70.1256Z" fill="#112233"/>
<path d="M290.699 115.374C285.793 114.037 288.544 115.362 275.877 110.634C272.537 109.229 269.405 107.373 266.568 105.119C265.969 104.707 265.296 104.414 264.586 104.257C264.063 104.185 263.569 103.971 263.159 103.638C262.749 103.304 262.438 102.865 262.26 102.367C262.082 101.87 262.045 101.333 262.151 100.815C262.257 100.297 262.503 99.8187 262.862 99.4312C264.861 97.0552 267.446 95.2431 270.361 94.1748C275.377 92.061 280.357 92.7977 285.268 94.5199C292.601 97.0879 301.673 99.7586 303.886 106.93C304.23 108.247 304.149 109.64 303.654 110.908C303.158 112.177 302.275 113.256 301.129 113.992C295.02 117.357 293.383 116.105 290.699 115.374ZM268.811 105.464C274.215 108.841 280.12 111.342 286.305 112.875C285.299 111.87 287.438 113.141 269.414 105.291C268.711 104.824 268.388 105.252 268.811 105.464V105.464ZM274.325 94.2615C270.863 95.064 265.979 97.2211 263.984 100.121C263.102 101.405 263.464 102.288 265.019 102.707C273.05 104.787 280.74 108.008 287.855 112.271C291.81 114.266 294.935 115.953 300.094 111.669C302.501 109.673 302.594 107.962 300.954 105.291C299.636 103.044 297.648 101.266 295.267 100.208C291.22 98.4778 287.082 96.9322 282.857 95.4668C280.113 94.5369 277.22 94.1281 274.325 94.2615V94.2615Z" fill="#112233"/>
<path d="M260.452 136.661C260.624 133.385 263.113 132.109 265.967 133.73C266.127 133.825 288.146 145.962 305.35 155.879C306.875 157.551 308.232 159.37 309.4 161.309C309.796 161.909 309.602 162.593 308.625 162.593C300.985 161.744 307.763 164.435 262.693 139.16C261.918 138.469 260.797 137.781 260.452 136.661ZM304.23 156.739L271.739 138.298C271.478 138.077 271.173 137.916 270.843 137.826C270.514 137.736 270.169 137.719 269.832 137.776C269.496 137.834 269.176 137.964 268.895 138.159C268.615 138.353 268.38 138.606 268.208 138.901C267.501 139.749 267.522 140.185 268.466 140.71C283.331 148.945 301.861 159.755 302.248 159.755C302.851 158.808 303.455 157.773 304.23 156.739V156.739ZM306.988 159.668L305.695 157.601C304.057 158.29 303.368 159.152 303.448 160.53C304.66 160.358 306.039 161.22 306.988 159.668ZM262.69 137.436C263.378 136.401 263.982 135.454 264.672 134.418C264.464 134.304 264.235 134.232 263.999 134.21C263.763 134.187 263.525 134.212 263.3 134.285C263.074 134.358 262.866 134.476 262.688 134.633C262.509 134.789 262.365 134.981 262.264 135.195C261.659 136.229 261.918 137.091 262.693 137.436H262.69ZM265.964 139.503C266.826 138.38 267.601 137.521 268.371 136.574C267.763 136.533 267.16 136.711 266.671 137.074C266.181 137.437 265.837 137.962 265.699 138.556C265.709 138.819 265.961 139.245 265.961 139.503H265.964ZM264.24 138.641C265.017 137.357 265.619 136.394 266.137 135.367C264.843 135.625 263.982 136.316 263.89 137.436C263.938 137.855 264.057 138.263 264.243 138.641H264.24Z" fill="#112233"/>
<path d="M100.852 103.05C106.088 103.962 104.597 114.849 86.2885 115.977C79.1832 116.415 63.6002 113.627 66.295 108.05C66.5207 107.39 66.9347 106.81 67.486 106.382C68.0373 105.954 68.7018 105.697 69.3975 105.642C69.2663 105.903 69.0547 106.115 68.794 106.246C68.3558 106.477 67.9918 106.827 67.7438 107.256C67.4958 107.685 67.3738 108.175 67.3919 108.67C67.41 109.165 67.5674 109.645 67.8461 110.055C68.1248 110.464 68.5135 110.787 68.9673 110.985C76.7259 115.701 92.6716 116.211 100.681 109.701C101.119 109.377 101.486 108.967 101.76 108.496C102.034 108.025 102.209 107.502 102.273 106.961C102.338 106.42 102.291 105.871 102.135 105.349C101.98 104.826 101.719 104.341 101.369 103.923C101.111 103.74 101.024 103.395 100.852 103.05Z" fill="#112233"/>
<path d="M281.479 45.7438C280.227 45.7438 279.988 44.6845 280.875 44.0201C282.337 42.4439 301.052 41.2627 301.214 41.2627C301.648 41.2284 302.078 41.368 302.409 41.6508C302.741 41.9336 302.946 42.3364 302.98 42.7706C303.014 43.2048 302.875 43.6348 302.592 43.966C302.309 44.2973 301.906 44.5026 301.472 44.5369C294.836 45.3211 288.161 45.7241 281.479 45.7438V45.7438Z" fill="#112233"/>
<path d="M224.171 48.6729C230.912 47.9041 232.026 47.7885 232.962 48.3278C233.139 48.4093 233.287 48.5419 233.388 48.7083C233.489 48.8748 233.538 49.0677 233.529 49.2623C233.52 49.4568 233.452 49.6441 233.336 49.8002C233.219 49.9563 233.059 50.074 232.875 50.1383C231.674 50.5754 230.433 50.8931 229.169 51.0868C226.157 51.4592 223.051 51.6903 219.948 51.862C218.656 52.0338 216.323 49.5685 224.171 48.6729Z" fill="#112233"/>
<path d="M250.197 127.525C249.595 126.75 248.913 125.801 247.612 126.318C247.354 126.405 244.743 126.593 244.081 125.456C242.841 123.338 238.096 122.086 236.239 121.925C218.623 120.038 210.667 123.63 201.942 128.56C200.262 129.281 201.482 128.915 196.081 127.01C185.667 123.105 168.064 123.98 151.269 134.68C149.1 136.017 147.247 137.811 145.841 139.937C144.753 141.566 143.929 141.283 141.532 142.344C141.274 142.403 141.034 142.524 140.835 142.698C140.635 142.872 140.482 143.092 140.388 143.339C140.294 143.587 140.262 143.853 140.297 144.116C140.331 144.378 140.429 144.628 140.583 144.843C141.962 147.17 166.953 189.053 169.194 192.93C169.884 194.137 170.401 194.396 171.693 194.137C176.434 193.102 216.368 185.348 225.21 183.451C226.612 183.071 228.068 182.925 229.518 183.02C232.517 183.38 235.54 182.576 237.963 180.773C238.643 180.274 239.449 179.975 240.29 179.911C244.34 179.394 275.365 174.826 278.552 174.396C288.012 173.409 291.273 180.813 250.197 127.525ZM173.845 190.09C173.203 189.448 146.117 144.748 146.01 144.588C146.762 143.835 144.405 140.656 173.413 188.539C174.339 190.082 174.347 189.587 173.845 190.09ZM187.46 185.78C198.1 181.072 209.531 178.412 221.156 177.938L187.46 185.78ZM190.908 182.678C198.405 178.887 206.247 176.474 214.262 176.818C206.285 177.905 198.453 179.87 190.908 182.678V182.678ZM175.999 189.228C166.174 173.199 156.35 157.199 146.526 141.227C161.231 128.708 180.864 123.943 197.458 129.852C199.507 130.562 201.244 131.964 202.369 133.817C216.567 155.577 229.163 174.277 230.893 177.163C210.298 170.786 192.373 176.388 175.999 189.228V189.228ZM232.962 176.818C222.879 161.651 212.71 146.312 202.456 130.973C212.116 122.977 232.416 122.076 242.528 125.801C243.293 125.994 274.856 167.185 275.533 168.201C268.256 166.642 260.706 166.908 253.557 168.976C246.363 170.627 239.432 173.266 232.962 176.818V176.818ZM268.983 169.408C263.045 170.269 256.747 171.045 250.542 171.907C258.815 169.666 266.571 168.717 268.983 169.408V169.408ZM242.269 175.784C242.201 175.683 242.17 175.561 242.183 175.439C244.165 174.922 246.234 174.316 248.388 173.974C252.731 173.314 269.866 170.73 274.326 170.528C274.91 170.535 275.49 170.622 276.05 170.786C264.677 172.51 253.472 174.147 242.269 175.784Z" fill="#112233"/>
<path d="M262.693 137.436C260.927 136.65 262.409 133.329 264.588 134.419C263.985 135.449 263.296 136.401 262.693 137.436Z" fill="#1177FF"/>
<path d="M111.022 192.675C110.849 193.622 110.33 194.072 109.47 193.967C105.408 193.474 110.719 195.813 93.3557 185.522C88.828 182.838 70.2598 172.831 70.2598 169.407C70.6819 168.985 75.5338 169.728 76.293 170.183C114.701 193.381 108.265 189.229 111.022 192.675ZM93.0106 183.885C93.4456 184.32 101.458 189.09 107.229 192.502C107.828 192.857 108.091 192.588 108.436 192.158C108.781 191.64 108.436 191.385 108.006 191.123C106.385 190.139 96.715 184.222 93.6141 182.419C93.4432 182.92 93.2416 183.409 93.0106 183.885V183.885Z" fill="#112233"/>
<path d="M219.69 74.9581C221.266 75.2005 220.171 74.5793 243.906 95.0367C244.802 95.6337 244.145 96.2436 243.561 96.2436C240.287 96.5871 162.297 105.471 158.764 105.981C158.212 106.072 157.645 106.007 157.127 105.793C156.61 105.58 156.162 105.227 155.833 104.774C138.981 84.3377 138.441 84.3907 138.684 83.6604C139.363 82.3026 219.5 74.9276 219.69 74.9581ZM154.541 89.7803C153.506 89.952 152.731 90.1237 151.869 90.2104C151.094 90.3838 151.782 90.6422 152.301 90.6422C155.368 89.7899 156.681 91.809 160.228 96.2436C159.022 96.4153 158.074 96.502 157.125 96.6737C156.263 97.0188 157.04 96.9321 157.125 97.0188C157.956 97.1104 158.794 97.1104 159.624 97.0188C160.054 96.9181 160.504 96.9461 160.918 97.0993C161.331 97.2526 161.691 97.5244 161.951 97.8807C162.772 98.7009 163.635 99.4772 164.537 100.206C164.795 100.38 165.054 100.551 164.796 99.948C163.934 99.001 163.158 98.0524 162.21 97.1055C162.192 97.0845 162.18 97.0592 162.175 97.0322C162.17 97.0052 162.171 96.9773 162.18 96.9512C162.189 96.925 162.204 96.9016 162.225 96.8831C162.245 96.8646 162.27 96.8516 162.297 96.8455C163.675 96.6738 169.535 95.8985 172.551 95.6401C172.986 95.6986 173.385 95.9131 173.674 96.2436C175.894 98.4633 178.894 101.941 177.984 100.121C176.777 98.6559 175.576 97.1055 174.278 95.6401C174.623 95.4668 177.04 95.2437 183.672 94.5166C186.689 94.1956 187.656 93.8088 188.583 94.8617C189.546 95.9627 190.565 97.0156 191.514 98.1359C191.944 98.8245 192.289 98.481 191.772 97.8775C190.91 96.5839 189.962 95.3785 189.015 93.9998C192.719 93.5681 196.34 93.1379 200.045 92.7062C201.329 92.7062 202.824 95.5358 204.526 96.6705L204.784 96.4121C203.837 95.2052 202.975 94.0046 202.027 92.7929C201.784 92.3114 201.722 92.6131 212.109 91.2408C213.318 91.0803 214.091 90.8974 214.953 92.1027C216.505 94.8617 217.2 95.2918 216.59 93.7414C216.332 93.3097 215.729 92.1027 215.385 91.4142C215.36 91.3696 215.348 91.3193 215.348 91.2683C215.349 91.2173 215.363 91.1675 215.39 91.1237C215.416 91.0799 215.453 91.0438 215.498 91.019C215.542 90.9942 215.593 90.9816 215.644 90.9824C217.022 90.8107 220.471 90.1366 223.571 89.7771C226.416 89.4464 227.285 88.9088 228.31 90.0355C229.092 90.8925 229.949 91.6726 230.811 92.5345C231.413 93.223 231.671 93.0513 231.154 92.2761L228.747 89.3453C228.705 89.3133 228.675 89.2687 228.662 89.2182C228.648 89.1677 228.651 89.114 228.67 89.0654C228.69 89.0168 228.724 88.9758 228.769 88.9487C228.814 88.9216 228.866 88.9098 228.918 88.9152L231.849 88.14C232.538 87.9666 232.194 87.7949 231.763 87.7949C227.732 88.1608 228.053 88.8895 225.903 86.3295C224.959 85.206 221.593 82.3652 221.076 81.8484C221.355 81.687 221.642 81.5428 221.938 81.4166C222.542 81.2449 222.542 80.9865 221.68 81.1582C221.193 81.2617 220.687 81.2324 220.215 81.0731C220.043 80.9865 218.751 79.436 218.319 78.9176C217.802 78.4875 217.802 78.7459 218.061 79.091L219.184 80.8998C219.209 80.9444 219.222 80.9947 219.221 81.0457C219.22 81.0966 219.206 81.1465 219.18 81.1903C219.153 81.234 219.116 81.2701 219.072 81.2949C219.027 81.3197 218.977 81.3324 218.926 81.3316C215.306 81.7617 211.772 82.1934 208.24 82.5369C207.089 82.5369 206.635 81.7585 205.396 80.7281C205.051 80.1246 204.792 80.383 205.224 80.8998C205.654 81.5033 205.999 82.1068 206.431 82.7103C206.603 83.0553 206.516 83.1404 206.344 83.1404C204.707 83.4855 201.431 83.5641 199.443 83.8305C194.443 84.5014 194.173 84.617 192.204 82.2785C191.757 81.7769 191.267 81.3155 190.739 80.8998C190.48 80.5563 190.309 80.8147 190.48 81.1582C191.257 82.1068 192.204 83.3137 193.066 84.3473C193.083 84.3684 193.095 84.3935 193.1 84.4203C193.105 84.4471 193.103 84.4748 193.094 84.5006C193.086 84.5265 193.071 84.5497 193.05 84.5681C193.03 84.5865 193.006 84.5995 192.979 84.6058C191.687 84.6924 186.346 84.954 184.017 85.381C182.123 85.7292 181.77 85.6394 180.313 83.9172C179.929 83.3619 179.496 82.8424 179.019 82.3652C178.416 81.59 178.589 82.1934 178.761 82.6236C179.364 83.4855 179.968 84.434 180.571 85.381C180.589 85.4205 180.599 85.4634 180.6 85.5069C180.601 85.5504 180.593 85.5936 180.577 85.634C180.561 85.6744 180.537 85.7111 180.506 85.7418C180.475 85.7725 180.438 85.7966 180.398 85.8127C176.433 86.4162 172.573 87.0325 168.681 87.6216C167.258 87.8382 167.752 87.3005 165.492 85.0375L165.234 85.2959C165.752 86.1578 166.357 86.933 167.044 87.8799C163.683 88.4834 160.407 88.9088 157.133 89.6037C156.651 89.7447 156.135 89.709 155.676 89.5031C155.218 89.2971 154.849 88.9344 154.634 88.4802C152.48 85.8095 152.135 85.9812 152.48 86.413C153.054 87.6008 153.744 88.7288 154.541 89.7803Z" fill="#1177FF"/>
<path d="M155.575 111.324C155.415 111.164 154.041 110.112 155.747 109.687C159.278 109.255 247.526 99.1728 251.317 98.7427C252.06 98.7427 252.578 99.6559 251.403 99.948C242.32 101.121 157.4 110.958 155.575 111.324Z" fill="#191919"/>
<path d="M130.238 83.3168C153.817 109.799 154.374 109.053 153.334 109.945C152.731 110.462 152.305 109.854 151.956 109.429C147.45 103.939 128.946 84.0086 128.946 83.6603C128.946 83.4019 128.94 81.8563 130.238 83.3168Z" fill="#112233"/>
<path d="M167.467 142.951C166.468 143.463 165.505 144.037 165.22 143.296C164.876 141.92 172.147 138.757 172.89 138.47C179.657 135.816 186.921 134.669 194.176 135.109C195.427 135.245 196.665 135.476 197.882 135.799C201.6 137.653 183.843 134.56 167.467 142.951Z" fill="#112233"/>
<path d="M198.578 141.572C200.645 142.434 198.663 142.696 198.318 142.696C194.129 142.72 189.961 143.27 185.909 144.333C185.651 144.419 183.582 144.161 185.564 143.209C193.254 140.746 194.952 140.736 198.578 141.572Z" fill="#112233"/>
<path d="M233.824 159.583C232.79 157.946 231.755 156.394 230.721 154.844C230.57 154.745 230.401 154.678 230.223 154.649C230.045 154.619 229.863 154.626 229.688 154.67C228.819 154.909 227.877 155.187 226.929 155.36C227.447 154.154 228.652 153.895 229.688 153.205C228.911 151.913 228.222 150.621 227.441 149.242C224.333 150.366 224.52 150.308 223.648 150.017C224.171 149.233 223.252 149.536 226.837 148.035C225.802 146.225 224.855 144.504 223.82 142.692C223.131 142.951 222.441 143.209 221.666 143.467C221.666 142.262 222.699 142.183 223.218 141.659C222.441 140.021 221.666 138.383 220.891 136.659C220.977 136.574 220.932 135.25 222.269 137.091C224.516 140.182 224.722 141.055 225.372 141.055C228.216 140.452 230.973 139.761 233.817 139.073C230.887 133.73 230.456 131.919 234.851 138.211C234.95 138.503 235.157 138.745 235.43 138.89C235.702 139.034 236.019 139.068 236.316 138.986C238.382 138.786 240.452 138.728 242.693 138.641C242.405 138.122 242.175 137.573 242.004 137.004C239.757 130.024 243.21 136.487 243.21 136.574C244.796 141.331 248.636 137.319 250.272 140.365C248.893 140.28 247.428 140.193 245.704 140.107C246.652 141.572 247.428 142.864 248.29 144.158C248.492 144.56 252.716 144.188 253.978 145.442C252.512 146.217 251.047 145.442 249.41 145.958C250.1 147.082 250.789 148.205 251.565 149.319C251.65 149.493 252.082 149.493 252.426 149.493C253.719 149.578 254.926 149.578 256.218 149.664C256.575 149.74 256.921 149.856 257.252 150.009C257.252 150.635 257.762 150.141 252.597 150.956C253.373 152.25 254.063 153.542 254.925 154.749C255.372 155.198 256.851 154.887 260.353 155.094C260.691 155.094 262.279 155.659 261.818 156.128C259.923 156.299 258.026 156.473 256.04 156.644C256.188 157.292 256.39 157.926 256.642 158.54C258.889 164.745 258.798 165.003 255.518 159.317C254.876 158.458 254.315 156.99 253.451 156.99C251.204 157.335 249.055 157.68 246.73 158.023C247.333 159.489 248.453 162.419 248.797 163.54C249.574 165.607 248.28 163.711 248.195 163.625C246.009 160.53 245.372 158.627 244.402 158.627C241.817 159.143 239.318 159.75 236.732 160.264C237.509 161.642 238.197 162.936 238.887 164.228C239.491 165.177 238.801 165.003 238.456 164.487C237.939 163.883 237.332 163.363 236.819 162.763C236.218 162.071 235.695 160.954 235.01 160.781C234.1 160.479 233.111 161.337 230.184 161.988C230.721 160.704 232.358 160.445 233.824 159.583ZM228.394 147.432C231.151 146.743 233.824 145.966 236.494 145.278C235.806 143.726 235.031 142.262 234.247 140.538C231.403 141.055 228.469 141.662 225.372 142.262C226.499 144.071 227.441 145.795 228.394 147.432ZM232.013 153.895C233.137 155.619 234.169 157.256 235.202 158.808C235.272 158.897 235.368 158.961 235.476 158.992C235.585 159.023 235.7 159.019 235.806 158.98C238.305 158.29 240.891 157.601 243.475 156.826C242.614 155.36 241.752 153.982 240.891 152.603C240.828 152.504 240.737 152.426 240.629 152.38C240.521 152.334 240.402 152.321 240.287 152.345C237.615 152.861 234.944 153.378 232.013 153.895V153.895ZM239.77 150.879C239.08 149.672 238.305 148.472 237.615 147.26C237.307 146.642 236.066 147.329 229.084 148.639C229.859 150.017 230.463 151.046 231.151 152.17C231.325 152.343 231.67 152.601 231.928 152.515C234.512 152 237.098 151.483 239.77 150.879V150.879ZM242.441 151.913C244.645 155.519 245.097 156.567 245.63 156.567C247.877 156.222 250.111 155.791 252.437 155.36C251.662 154.067 250.973 152.861 250.19 151.655C249.948 151.157 249.307 151.204 242.441 151.913V151.913ZM235.806 140.365C238.359 145.047 237.592 145.084 240.632 144.761C242.269 144.586 243.906 144.416 245.63 144.243C244.94 142.951 244.271 141.731 243.561 140.623C243.477 140.486 243.364 140.369 243.23 140.28C243.097 140.191 242.945 140.131 242.786 140.107C240.544 140.15 238.305 140.28 235.806 140.365V140.365ZM239.167 146.57C239.942 147.949 240.632 149.069 241.414 150.189C241.495 150.294 241.6 150.38 241.719 150.44C241.838 150.5 241.969 150.532 242.102 150.534C244.43 150.276 246.67 149.931 249.082 149.672C245.972 145.016 248.42 145.909 239.167 146.57V146.57Z" fill="#112233"/>
<path d="M218.657 132.265C218.399 131.489 219.002 131.058 219.606 130.886C228.364 127.66 237.33 128.273 238.994 129.937C239.744 130.687 238.917 131.139 238.392 130.972C232.131 128.979 224.881 130.709 218.657 132.265Z" fill="#112233"/>
<path d="M43.544 116.409C46.2893 116.434 48.9658 117.271 51.2368 118.813C53.5078 120.356 55.2718 122.536 56.3069 125.079C57.342 127.622 57.602 130.414 57.0542 133.104C56.5064 135.794 55.1752 138.262 53.2281 140.198C51.281 142.133 48.805 143.45 46.1116 143.982C43.4182 144.513 40.6276 144.237 38.091 143.187C35.5544 142.136 33.3851 140.359 31.8559 138.079C30.3268 135.799 29.5061 133.118 29.4971 130.372C29.5153 126.66 31.0038 123.106 33.6365 120.489C36.2693 117.872 39.8318 116.405 43.544 116.409V116.409ZM41.4768 128.215C41.4768 128.128 38.6327 122.527 37.1674 119.511C35.7887 120.803 34.5817 121.919 33.203 123.13C36.0471 124.939 41.3901 128.215 41.4768 128.215ZM32.6862 136.572C34.0649 138.038 35.2719 139.243 36.5639 140.622C38.3743 137.693 41.8219 132.091 41.8219 132.004C41.5811 132.253 35.7261 135.054 32.6862 136.572ZM32.0827 135.449C35.2719 133.812 41.045 130.794 41.045 130.709C37.7708 130.536 34.4966 130.451 30.9624 130.278C31.3091 132.093 31.6526 133.643 32.0827 135.449ZM54.4885 136.396C55.0069 134.674 55.5237 133.122 56.0406 131.484C52.5096 131.313 45.9579 131.053 45.8713 131.139C48.7153 132.868 51.4727 134.592 54.4885 136.401V136.396ZM44.8377 117.954C44.6643 121.485 44.4059 128.037 44.4926 128.037C46.2164 125.28 47.9401 122.522 49.8356 119.506C48.1119 118.994 46.5566 118.476 44.8377 117.954ZM42.8555 127.779C42.9422 127.779 43.2856 121.315 43.459 117.869C41.7352 118.213 40.0981 118.644 38.3743 118.993C39.9248 122.095 41.3901 124.939 42.8555 127.783V127.779ZM53.7133 137.603C50.8692 135.794 45.4411 132.518 45.3545 132.605C46.8198 135.362 48.2836 138.12 49.749 141.05C51.1277 139.943 52.3346 138.819 53.7133 137.608V137.603ZM40.5282 129.589C40.5282 129.502 35.3585 126.058 32.5145 124.246C31.9977 125.883 31.4792 127.433 30.9624 129.072C34.41 129.249 37.5124 129.42 40.5282 129.594V129.589ZM55.092 125.451C52.0762 126.917 49.2321 128.295 46.4748 129.674C46.4748 129.761 52.7664 130.106 56.1272 130.278C55.7822 128.559 55.4371 127.008 55.092 125.456V125.451ZM48.5436 141.654C46.9916 138.723 44.0624 133.293 44.0624 133.293C43.9758 136.311 43.8024 139.413 43.7174 142.687C45.3545 142.35 46.8198 142.002 48.5436 141.659V141.654ZM51.0506 120.373C49.3268 123.13 47.6897 125.629 45.966 128.128C46.051 128.215 51.4808 125.456 54.4115 123.992C53.1965 122.785 52.1629 121.578 51.0506 120.373ZM42.1734 142.606C42.4318 139.418 42.6902 133.385 42.6051 133.385C40.968 135.884 39.416 138.469 37.6071 141.227C39.2362 141.744 40.6181 142.175 42.1653 142.606H42.1734Z" fill="#191919"/>
<path d="M271.223 96.5871C272.516 96.5871 273.723 96.5021 274.929 96.5871C275.619 96.6738 277.336 98.656 277.859 99.0861C276.736 98.9144 274.24 98.4842 274.067 98.3976C273.205 97.8808 272.343 97.2773 271.223 96.5871Z" fill="#112233"/>
<path d="M187.202 93.1411C185.651 93.3128 184.359 93.4958 183.065 93.6579C180.138 94.0254 177.206 94.2614 174.275 94.6048C173.93 94.6048 173.413 94.6048 173.241 94.3464C171.689 92.5376 170.139 90.6421 168.415 88.5684C170.225 88.31 178.076 87.2395 180.308 86.8447C180.703 86.7388 181.121 86.7563 181.506 86.8949C181.891 87.0335 182.225 87.2864 182.462 87.6199C183.829 89.3581 185.478 91.1589 187.202 93.1411Z" fill="#1177FF"/>
<path d="M225.895 88.0566C225.936 88.0885 225.966 88.1332 225.98 88.1837C225.994 88.2342 225.991 88.2879 225.971 88.3365C225.952 88.3851 225.917 88.4261 225.872 88.4532C225.827 88.4803 225.775 88.4921 225.723 88.4867C224.553 88.6247 219.706 89.3791 214.692 89.7803C213.275 89.7803 214.278 89.8991 208.66 84.0023C208.619 83.9704 208.589 83.9257 208.575 83.8752C208.561 83.8247 208.564 83.7711 208.584 83.7224C208.603 83.6738 208.638 83.6328 208.683 83.6057C208.727 83.5786 208.78 83.5668 208.832 83.5722C219.746 82.0667 219.746 81.7377 220.121 82.1068C222.104 84.089 223.977 86.0953 225.895 88.0566Z" fill="#1177FF"/>
<path d="M195.13 85.1257C199.109 84.6282 204.243 84.1499 206.246 83.8337C206.642 83.7581 207.05 83.7901 207.429 83.9265C207.808 84.0628 208.143 84.2986 208.4 84.6089C209.901 86.3905 211.502 88.1399 213.141 90.0386C210.686 90.3885 211.047 90.273 201.507 91.4173C201.145 91.4238 200.789 91.3347 200.473 91.1589C198.662 89.3485 196.942 87.453 195.13 85.5575V85.1257Z" fill="#1177FF"/>
<path d="M199.698 91.6756C196.767 92.0206 193.92 92.1892 191.079 92.7991C190.09 93.0677 189.039 92.9916 188.099 92.5831C187.16 92.1747 186.387 91.4583 185.909 90.5521C184.965 89.2951 183.958 88.0871 182.892 86.9328C182.859 86.8899 182.838 86.8399 182.829 86.7869C182.821 86.7339 182.825 86.6796 182.842 86.6288C182.859 86.5779 182.889 86.5319 182.927 86.4949C182.966 86.4578 183.013 86.4307 183.065 86.416C193.571 85.2925 192.067 85.392 193.234 85.2925C193.751 85.2925 194.011 85.6343 194.358 85.981C196.267 87.754 198.051 89.6567 199.698 91.6756Z" fill="#1177FF"/>
<path d="M156.523 90.3835C159.452 89.9518 161.094 89.6436 164.624 89.1766C166.694 88.9021 167.55 88.0948 168.586 89.8651C170.267 92.7349 171.177 92.8456 172.466 94.778C167.461 95.3333 165.157 95.7202 162.125 95.985C160.809 95.985 160.68 95.4425 156.437 90.727C156.402 90.7067 156.375 90.6759 156.36 90.6391C156.345 90.6023 156.342 90.5615 156.351 90.5228C156.361 90.4841 156.383 90.4496 156.414 90.4245C156.445 90.3994 156.483 90.385 156.523 90.3835V90.3835Z" fill="#1177FF"/>
</svg>
