<svg width="52" height="52" viewBox="0 0 52 52" fill="none" xmlns="http://www.w3.org/2000/svg">
<path d="M26 0C11.641 0 0 11.641 0 26C0 40.359 11.641 52 26 52C40.359 52 52 40.359 52 26C52 11.641 40.359 0 26 0ZM38.927 20.226C38.939 20.497 38.944 20.769 38.944 21.042C38.944 29.382 32.755 39 21.434 39C17.958 39 14.723 37.955 11.999 36.165C12.481 36.224 12.972 36.254 13.468 36.254C16.352 36.254 19.006 35.245 21.112 33.552C18.419 33.501 16.146 31.675 15.363 29.168C15.738 29.24 16.124 29.28 16.52 29.28C17.082 29.28 17.627 29.203 18.142 29.059C15.326 28.48 13.205 25.929 13.205 22.871C13.205 22.844 13.205 22.819 13.205 22.792C14.035 23.264 14.984 23.548 15.993 23.581C14.342 22.45 13.256 20.518 13.256 18.329C13.256 17.171 13.559 16.087 14.088 15.154C17.125 18.973 21.659 21.487 26.774 21.749C26.67 21.289 26.615 20.806 26.615 20.311C26.615 16.826 29.37 14 32.769 14C34.539 14 36.138 14.767 37.261 15.994C38.664 15.71 39.982 15.185 41.17 14.462C40.711 15.936 39.736 17.173 38.464 17.954C39.71 17.8 40.896 17.462 42 16.959C41.175 18.224 40.131 19.335 38.927 20.226Z" fill="#112233"/>
</svg>
