<svg width="10" height="10" viewBox="0 0 10 10" fill="none" xmlns="http://www.w3.org/2000/svg">
<path d="M3.02557 4.63636C3.02557 4.17045 3.1392 3.74574 3.36648 3.36222C3.59375 2.97869 3.89915 2.6733 4.28267 2.44602C4.66619 2.21875 5.09091 2.10511 5.55682 2.10511C5.9375 2.10511 6.28835 2.18324 6.60938 2.33949C6.9304 2.49574 7.19886 2.71023 7.41477 2.98295C7.63352 3.25284 7.77983 3.56108 7.85369 3.90767H7.06108C6.97585 3.59801 6.79403 3.34517 6.51562 3.14915C6.23722 2.95312 5.91761 2.85511 5.55682 2.85511C5.23011 2.85511 4.93182 2.93608 4.66193 3.09801C4.39205 3.2571 4.17614 3.47159 4.0142 3.74148C3.85511 4.00852 3.77557 4.30682 3.77557 4.63636C3.77557 4.96307 3.85511 5.26136 4.0142 5.53125C4.17614 5.80114 4.39205 6.01705 4.66193 6.17898C4.93182 6.33807 5.23011 6.41761 5.55682 6.41761C5.91761 6.41761 6.22727 6.3196 6.4858 6.12358C6.74432 5.92756 6.91761 5.67472 7.00568 5.36506H7.79403C7.72301 5.71165 7.58381 6.02131 7.37642 6.29403C7.16903 6.56392 6.90909 6.77699 6.59659 6.93324C6.28409 7.08949 5.9375 7.16761 5.55682 7.16761C5.09091 7.16761 4.66619 7.05398 4.28267 6.8267C3.89915 6.59943 3.59375 6.29403 3.36648 5.91051C3.1392 5.52699 3.02557 5.10227 3.02557 4.63636ZM5.48864 9.13636C4.86932 9.13636 4.28693 9.01989 3.74148 8.78693C3.19886 8.55398 2.72017 8.23153 2.3054 7.8196C1.89347 7.40483 1.5696 6.92614 1.33381 6.38352C1.10085 5.84091 0.985795 5.25852 0.988636 4.63636C0.991477 4.0142 1.10938 3.43182 1.34233 2.8892C1.57813 2.34659 1.90199 1.86932 2.31392 1.45739C2.72585 1.04261 3.20313 0.71875 3.74574 0.485795C4.28835 0.252841 4.86932 0.136364 5.48864 0.136364C6.1108 0.136364 6.69318 0.252841 7.2358 0.485795C7.78125 0.71875 8.25852 1.04261 8.66761 1.45739C9.07955 1.86932 9.40199 2.34659 9.63494 2.8892C9.8679 3.43182 9.9858 4.0142 9.98864 4.63636C9.99148 5.25852 9.87642 5.84091 9.64347 6.38352C9.41051 6.92614 9.08807 7.40483 8.67614 7.8196C8.2642 8.23153 7.78551 8.55398 7.24006 8.78693C6.6946 9.01989 6.1108 9.13636 5.48864 9.13636ZM5.48864 8.38636C6.00852 8.38636 6.49574 8.28977 6.95028 8.09659C7.40483 7.90057 7.80256 7.6321 8.14347 7.29119C8.48722 6.94744 8.75568 6.5483 8.94886 6.09375C9.14489 5.6392 9.24148 5.15483 9.23864 4.64062C9.2358 4.12074 9.13636 3.63352 8.94034 3.17898C8.74716 2.72443 8.47869 2.3267 8.13494 1.9858C7.79403 1.64205 7.39773 1.37358 6.94602 1.1804C6.49432 0.984375 6.00852 0.886364 5.48864 0.886364C4.97159 0.886364 4.48722 0.984375 4.03551 1.1804C3.58381 1.37358 3.18608 1.64205 2.84233 1.9858C2.50142 2.32955 2.23295 2.72869 2.03693 3.18324C1.84091 3.63494 1.74148 4.12074 1.73864 4.64062C1.7358 5.15483 1.83097 5.6392 2.02415 6.09375C2.22017 6.54545 2.49006 6.94318 2.83381 7.28693C3.17756 7.62784 3.5767 7.89631 4.03125 8.09233C4.4858 8.28835 4.97159 8.38636 5.48864 8.38636Z" fill="#C3CED9"/>
</svg>
